<svg width="151" height="50" viewBox="0 0 151 50" fill="none" xmlns="http://www.w3.org/2000/svg">
<path fill-rule="evenodd" clip-rule="evenodd" d="M5.25548 1H144.901C147.251 1 149.156 2.90524 149.156 5.25548V44.7445C149.156 47.0948 147.251 49 144.901 49H5.25549C2.90525 49 1 47.0948 1 44.7445V5.25547C1 2.90524 2.90524 1 5.25548 1ZM0 5.25547C0 2.35295 2.35296 0 5.25548 0H144.901C147.803 0 150.156 2.35296 150.156 5.25548V44.7445C150.156 47.647 147.803 50 144.901 50H5.25549C2.35297 50 0 47.647 0 44.7445V5.25547ZM31.8003 22.4021C31.2848 23.3096 31.0074 24.3325 30.9939 25.3758C30.9952 26.5494 31.3422 27.6967 31.9918 28.6745C32.6414 29.6524 33.5647 30.4176 34.6467 30.8748C34.2213 32.2553 33.5801 33.56 32.7467 34.7404C31.6276 36.4128 30.4542 38.0466 28.5918 38.0768C27.706 38.0972 27.1081 37.8428 26.4851 37.5777C25.8353 37.3011 25.1581 37.013 24.0984 37.013C22.9745 37.013 22.267 37.3104 21.5846 37.5973C20.995 37.8452 20.4241 38.0852 19.6195 38.1186C17.8458 38.1842 16.4903 36.3336 15.3305 34.6769C13.0123 31.2937 11.2072 25.1424 13.6272 20.9569C14.1859 19.954 14.9951 19.1128 15.9759 18.5153C16.9568 17.9177 18.0759 17.5841 19.2242 17.5471C20.2301 17.5264 21.1954 17.9137 22.0417 18.2533C22.6889 18.513 23.2665 18.7447 23.7395 18.7447C24.1553 18.7447 24.7168 18.5221 25.3711 18.2627C26.4019 17.854 27.6632 17.3539 28.9485 17.4887C29.9336 17.5195 30.8978 17.7793 31.7648 18.2475C32.6317 18.7157 33.3774 19.3793 33.9427 20.1858C33.0529 20.7323 32.3159 21.4947 31.8003 22.4021ZM27.5763 15.264C28.5918 14.0463 29.0921 12.4811 28.9709 10.9008C27.4195 11.0636 25.9865 11.8043 24.9573 12.9753C24.4541 13.5474 24.0687 14.2129 23.8231 14.9339C23.5776 15.6548 23.4767 16.4171 23.5262 17.177C24.3021 17.185 25.0698 17.017 25.7714 16.6856C26.4729 16.3543 27.0901 15.8682 27.5763 15.264ZM47.0102 33.925H52.9331L54.3542 38.1205H56.9057L51.2956 22.5981H48.6892L43.0791 38.1205H45.5878L47.0102 33.925ZM52.3185 31.9889H47.6236L49.9393 25.1799H50.0041L52.3185 31.9889ZM69.022 32.4629C69.022 35.9797 67.1377 38.2392 64.2942 38.2392C63.5739 38.2768 62.8575 38.1111 62.2271 37.7609C61.5967 37.4108 61.0778 36.8903 60.7297 36.2592H60.6759V41.8647H58.3505V26.8037H60.6014V28.686H60.6441C61.0082 28.0579 61.5359 27.5402 62.1711 27.1879C62.8063 26.8356 63.5252 26.6619 64.2514 26.6853C67.1267 26.6853 69.022 28.9558 69.022 32.4629ZM66.6318 32.4629C66.6318 30.1716 65.4465 28.6653 63.638 28.6653C61.8612 28.6653 60.6661 30.2033 60.6661 32.4629C60.6661 34.7431 61.8612 36.2702 63.638 36.2702C65.4465 36.2702 66.6318 34.7749 66.6318 32.4629ZM76.7626 38.2392C79.6061 38.2392 81.4904 35.9797 81.4904 32.4629C81.4904 28.9558 79.5951 26.6853 76.7197 26.6853C75.9936 26.6619 75.2747 26.8356 74.6395 27.1879C74.0043 27.5402 73.4766 28.0579 73.1125 28.686H73.0697V26.8037H70.8188V41.8647H73.1443V36.2592H73.1981C73.5461 36.8903 74.0651 37.4107 74.6955 37.7609C75.3259 38.1111 76.0422 38.2768 76.7626 38.2392ZM76.1064 28.6653C77.9149 28.6653 79.1002 30.1716 79.1002 32.4629C79.1002 34.7749 77.9149 36.2702 76.1064 36.2702C74.3296 36.2702 73.1345 34.7431 73.1345 32.4629C73.1345 30.2033 74.3296 28.6653 76.1064 28.6653ZM89.73 33.7953C89.9024 35.3347 91.3993 36.3453 93.4448 36.3453C95.4049 36.3453 96.815 35.3346 96.815 33.9467C96.815 32.7418 95.9645 32.0204 93.9507 31.526L91.9369 31.0414C89.0836 30.3529 87.759 29.0199 87.759 26.8568C87.759 24.1786 90.0954 22.339 93.4131 22.339C96.6965 22.339 98.9474 24.1786 99.0231 26.8568H96.6757C96.5352 25.3078 95.2533 24.3727 93.3801 24.3727C91.5068 24.3727 90.2249 25.3188 90.2249 26.6957C90.2249 27.7931 91.0436 28.4389 93.0465 28.9332L94.7584 29.3531C97.9465 30.1063 99.2712 31.3856 99.2712 33.6561C99.2712 36.5601 96.9555 38.379 93.2725 38.379C89.8265 38.379 87.4999 36.6029 87.3496 33.7952L89.73 33.7953ZM104.293 26.8028V24.1246H101.956V26.8028H100.309V28.6424H101.956V35.1291C101.956 37.324 102.851 38.1846 105.144 38.1846C105.577 38.1926 106.01 38.1566 106.436 38.0771V36.2485C106.182 36.2799 105.927 36.2978 105.671 36.3023C104.724 36.3023 104.293 35.8506 104.293 34.8814V28.6424H106.447V26.8028H104.293ZM107.694 32.4619C107.694 28.9011 109.793 26.6636 113.067 26.6636C116.352 26.6636 118.441 28.9011 118.441 32.4619C118.441 36.0324 116.363 38.2602 113.067 38.2602C109.772 38.2602 107.694 36.0324 107.694 32.4619ZM116.072 32.4619C116.072 30.0193 114.951 28.5776 113.067 28.5776C111.183 28.5776 110.063 30.0303 110.063 32.4619C110.063 34.9143 111.183 36.3449 113.067 36.3449C114.951 36.3449 116.072 34.9143 116.072 32.4619ZM122.576 26.8036H120.358L120.358 38.1207H122.683V31.408C122.645 31.0725 122.68 30.7326 122.786 30.4118C122.891 30.0909 123.065 29.7967 123.295 29.5494C123.526 29.302 123.807 29.1073 124.119 28.9787C124.432 28.8501 124.769 28.7906 125.106 28.8043C125.46 28.794 125.813 28.8414 126.151 28.9447V26.7718C125.89 26.7133 125.623 26.6842 125.355 26.6852C124.734 26.6615 124.125 26.8519 123.629 27.2242C123.132 27.5966 122.78 28.1282 122.63 28.7298H122.576V26.8036ZM136.874 34.7959C136.561 36.8503 134.559 38.2602 131.996 38.2602C128.7 38.2602 126.655 36.0544 126.655 32.5156C126.655 28.9658 128.711 26.6636 131.898 26.6636C135.033 26.6636 137.004 28.8144 137.004 32.2458V33.0417H129.002V33.1821C128.965 33.5986 129.017 34.0182 129.155 34.413C129.293 34.8078 129.514 35.1688 129.802 35.4719C130.09 35.7751 130.44 36.0136 130.827 36.1715C131.215 36.3293 131.632 36.403 132.05 36.3877C132.599 36.4391 133.151 36.312 133.622 36.0252C134.094 35.7384 134.46 35.3072 134.666 34.7959L136.874 34.7959ZM129.013 31.4182H134.677C134.698 31.0437 134.641 30.6689 134.51 30.3174C134.379 29.9659 134.177 29.6452 133.916 29.3755C133.655 29.1058 133.341 28.8929 132.994 28.7501C132.647 28.6074 132.274 28.5378 131.898 28.5459C131.52 28.5436 131.144 28.6163 130.794 28.7597C130.443 28.9032 130.125 29.1145 129.857 29.3815C129.588 29.6486 129.376 29.966 129.231 30.3156C129.086 30.6652 129.012 31.0399 129.013 31.4182ZM48.7638 11.1299C48.3081 10.9531 47.8189 10.8795 47.3314 10.9144H44.6345V18.373H47.3314C49.5554 18.373 50.8446 17.0033 50.8446 14.6205C50.9061 14.1361 50.8591 13.6441 50.7072 13.18C50.5553 12.7159 50.3022 12.2913 49.9661 11.9368C49.63 11.5822 49.2194 11.3066 48.7638 11.1299ZM47.2019 17.3182H45.7942V11.9684H47.2019C47.5485 11.9492 47.895 12.0068 48.2167 12.1371C48.5384 12.2674 48.8272 12.4672 49.0626 12.7221C49.2979 12.977 49.4739 13.2808 49.5779 13.6116C49.6819 13.9424 49.7113 14.2921 49.6641 14.6357C49.715 14.9806 49.6883 15.3325 49.5858 15.6657C49.4834 15.999 49.3079 16.3053 49.072 16.5622C48.8361 16.8192 48.5459 17.0204 48.2224 17.1511C47.8989 17.2819 47.5502 17.339 47.2019 17.3182ZM52.1543 15.5558C52.1189 15.1859 52.1612 14.8127 52.2787 14.4601C52.3961 14.1075 52.586 13.7833 52.8362 13.5083C53.0863 13.2334 53.3913 13.0137 53.7315 12.8633C54.0716 12.713 54.4395 12.6353 54.8115 12.6353C55.1834 12.6353 55.5513 12.713 55.8915 12.8633C56.2316 13.0137 56.5366 13.2334 56.7868 13.5083C57.037 13.7833 57.2269 14.1075 57.3443 14.4601C57.4617 14.8127 57.5041 15.1859 57.4687 15.5558C57.5047 15.9261 57.4629 16.2998 57.3458 16.6529C57.2287 17.0061 57.0389 17.3309 56.7886 17.6064C56.5384 17.8819 56.2332 18.1021 55.8927 18.2527C55.5522 18.4034 55.1839 18.4812 54.8115 18.4812C54.4391 18.4812 54.0708 18.4034 53.7303 18.2527C53.3897 18.1021 53.0846 17.8819 52.8343 17.6064C52.5841 17.3309 52.3943 17.0061 52.2772 16.6529C52.1601 16.2998 52.1182 15.9261 52.1543 15.5558ZM56.3249 15.5558C56.3249 14.3357 55.7762 13.6222 54.8133 13.6222C53.8467 13.6222 53.303 14.3357 53.303 15.5558C53.303 16.7857 53.8468 17.4936 54.8133 17.4936C55.7762 17.4936 56.3249 16.7808 56.3249 15.5558ZM63.3796 18.3724H64.5331L66.0801 12.7437H64.9681L63.9637 17.0387H63.8757L62.7173 12.7437H61.6505L60.4921 17.0387H60.409L59.3996 12.7437H58.2717L59.8249 18.3724H60.9674L62.1271 14.2269H62.215L63.3796 18.3724ZM67.3867 12.7442H68.4572V13.6384H68.5403C68.6812 13.3172 68.919 13.048 69.2204 12.8682C69.5218 12.6885 69.8718 12.6071 70.2217 12.6355C70.4959 12.615 70.7711 12.6562 71.0272 12.7564C71.2832 12.8565 71.5134 13.0129 71.7006 13.2139C71.8879 13.415 72.0276 13.6556 72.1091 13.9178C72.1907 14.1801 72.2122 14.4574 72.172 14.729V18.3728H71.06V15.008C71.06 14.1035 70.6665 13.6536 69.8441 13.6536C69.658 13.645 69.4722 13.6766 69.2994 13.7464C69.1266 13.8162 68.9711 13.9225 68.8433 14.0579C68.7155 14.1934 68.6185 14.3549 68.5591 14.5313C68.4996 14.7077 68.479 14.8949 68.4987 15.08V18.3728H67.3867L67.3867 12.7442ZM75.0557 10.5464H73.9437V18.3723H75.0557V10.5464ZM76.6002 15.5559C76.5648 15.1859 76.6072 14.8127 76.7246 14.4601C76.8421 14.1075 77.032 13.7833 77.2822 13.5084C77.5324 13.2334 77.8374 13.0137 78.1776 12.8633C78.5178 12.713 78.8857 12.6353 79.2577 12.6353C79.6298 12.6353 79.9977 12.713 80.3379 12.8633C80.678 13.0137 80.983 13.2334 81.2333 13.5084C81.4835 13.7833 81.6734 14.1075 81.7909 14.4601C81.9083 14.8127 81.9507 15.1859 81.9153 15.5559C81.9513 15.9262 81.9095 16.2999 81.7923 16.653C81.6752 17.0062 81.4853 17.3309 81.235 17.6064C80.9848 17.882 80.6796 18.1021 80.339 18.2528C79.9985 18.4034 79.6302 18.4813 79.2577 18.4813C78.8853 18.4813 78.517 18.4034 78.1765 18.2528C77.8359 18.1021 77.5307 17.882 77.2804 17.6064C77.0302 17.3309 76.8403 17.0062 76.7232 16.653C76.606 16.2999 76.5641 15.9262 76.6002 15.5559ZM80.7709 15.5559C80.7709 14.3358 80.2222 13.6223 79.2593 13.6223C78.2927 13.6223 77.7489 14.3358 77.7489 15.5559C77.7489 16.7857 78.2927 17.4937 79.2593 17.4937C80.2222 17.4937 80.7709 16.7808 80.7709 15.5559ZM85.183 15.1005C83.8426 15.1835 83.0874 15.7676 83.0874 16.7808C83.0883 17.0184 83.1391 17.2531 83.2364 17.4699C83.3337 17.6866 83.4754 17.8806 83.6523 18.0394C83.8293 18.1981 84.0376 18.318 84.2637 18.3913C84.4899 18.4647 84.729 18.4899 84.9655 18.4653C85.3007 18.4808 85.6339 18.4072 85.9312 18.2519C86.2286 18.0966 86.4793 17.8653 86.6579 17.5816H86.7459V18.3726H87.8163V14.5268C87.8163 13.3378 87.0196 12.6353 85.607 12.6353C84.3289 12.6353 83.4185 13.2554 83.3049 14.2222H84.3814C84.5049 13.8243 84.935 13.5966 85.5557 13.5966C86.3158 13.5966 86.7092 13.9323 86.7092 14.5268V15.0126L85.183 15.1005ZM86.7092 15.8293V16.2999C86.6972 16.4774 86.6495 16.6507 86.5691 16.8095C86.4886 16.9683 86.377 17.1093 86.2409 17.2241C86.1047 17.3389 85.9469 17.4251 85.7767 17.4777C85.6065 17.5304 85.4275 17.5482 85.2503 17.5303C84.6454 17.5303 84.2055 17.2355 84.2055 16.7289C84.2055 16.2327 84.5574 15.969 85.3333 15.9172L86.7092 15.8293ZM89.2782 15.5555C89.2782 13.777 90.1935 12.6503 91.6171 12.6503C91.9692 12.6341 92.3187 12.7183 92.6246 12.8932C92.9306 13.0681 93.1804 13.3263 93.3449 13.6378H93.428V10.5464H94.54V18.3723H93.4745V17.483H93.3865C93.2093 17.7924 92.9508 18.0474 92.6389 18.2205C92.327 18.3936 91.9736 18.4782 91.6171 18.465C90.1837 18.4651 89.2782 17.3384 89.2782 15.5555ZM90.4269 15.5555C90.4269 16.7494 90.9902 17.4678 91.9324 17.4678C92.8696 17.4678 93.4488 16.739 93.4488 15.5604C93.4488 14.3873 92.8635 13.6482 91.9324 13.6482C90.9963 13.6482 90.4268 14.3715 90.4269 15.5555ZM99.2641 14.4601C99.1467 14.8127 99.1043 15.1859 99.1398 15.5558C99.1037 15.9261 99.1455 16.2998 99.2626 16.6529C99.3797 17.0061 99.5695 17.3309 99.8198 17.6064C100.07 17.8819 100.375 18.1021 100.716 18.2527C101.056 18.4034 101.425 18.4812 101.797 18.4812C102.169 18.4812 102.538 18.4034 102.878 18.2527C103.219 18.1021 103.524 17.8819 103.774 17.6064C104.024 17.3309 104.214 17.0061 104.331 16.6529C104.448 16.2998 104.49 15.9261 104.454 15.5558C104.49 15.1859 104.447 14.8127 104.33 14.4601C104.212 14.1075 104.022 13.7833 103.772 13.5083C103.522 13.2334 103.217 13.0137 102.877 12.8633C102.537 12.713 102.169 12.6353 101.797 12.6353C101.425 12.6353 101.057 12.713 100.717 12.8633C100.377 13.0137 100.072 13.2334 99.8216 13.5083C99.5714 13.7833 99.3815 14.1075 99.2641 14.4601ZM101.799 13.6222C102.762 13.6222 103.31 14.3357 103.31 15.5558C103.31 16.7808 102.762 17.4936 101.799 17.4936C100.832 17.4936 100.288 16.7857 100.288 15.5558C100.288 14.3357 100.832 13.6222 101.799 13.6222ZM105.947 12.7442H107.017V13.6384H107.1C107.241 13.3172 107.479 13.048 107.781 12.8682C108.082 12.6885 108.432 12.6071 108.782 12.6355C109.056 12.615 109.331 12.6562 109.587 12.7564C109.843 12.8565 110.074 13.0129 110.261 13.2139C110.448 13.415 110.588 13.6556 110.669 13.9178C110.751 14.1801 110.772 14.4574 110.732 14.729V18.3728H109.62V15.008C109.62 14.1035 109.227 13.6536 108.404 13.6536C108.218 13.645 108.032 13.6766 107.86 13.7464C107.687 13.8162 107.531 13.9225 107.403 14.0579C107.276 14.1934 107.179 14.3549 107.119 14.5313C107.06 14.7077 107.039 14.8949 107.059 15.08V18.3728H105.947V12.7442ZM117.014 12.7697V11.3427H115.901V12.7697H115.007V13.7054H115.901V16.8841C115.901 17.9693 116.394 18.4039 117.63 18.4039C117.833 18.4018 118.035 18.3828 118.235 18.3471V17.4218C118.094 17.4384 117.953 17.447 117.811 17.4475C117.258 17.4475 117.014 17.1893 117.014 16.5997V13.7054H118.235V12.7697H117.014ZM119.755 10.5464H120.857V13.6482H120.945C121.093 13.324 121.338 13.0533 121.645 12.8729C121.952 12.6924 122.308 12.6111 122.663 12.6399C122.936 12.6251 123.209 12.6706 123.462 12.7731C123.715 12.8757 123.942 13.0327 124.128 13.2332C124.313 13.4336 124.452 13.6724 124.534 13.9326C124.617 14.1927 124.64 14.4678 124.604 14.7383V18.3723H123.491V15.0123C123.491 14.1133 123.072 13.6579 122.286 13.6579C122.095 13.6423 121.903 13.6685 121.723 13.7348C121.543 13.8012 121.38 13.9059 121.244 14.0419C121.109 14.1778 121.006 14.3416 120.94 14.5217C120.875 14.7019 120.85 14.8941 120.867 15.0849V18.3723H119.755L119.755 10.5464ZM130.162 18.1091C130.608 17.8114 130.935 17.3664 131.087 16.852L130.016 16.8519C129.886 17.0857 129.688 17.2753 129.45 17.3969C129.211 17.5184 128.942 17.5662 128.676 17.5343C128.468 17.5366 128.262 17.4956 128.072 17.4138C127.881 17.3321 127.71 17.2114 127.568 17.0596C127.427 16.9078 127.319 16.7282 127.251 16.5322C127.184 16.3363 127.158 16.1284 127.175 15.9218V15.8596H131.154V15.472C131.154 13.7045 130.208 12.6345 128.64 12.6345C128.268 12.6313 127.899 12.7081 127.559 12.8596C127.219 13.0111 126.916 13.2338 126.669 13.5126C126.423 13.7915 126.24 14.1199 126.131 14.4758C126.023 14.8316 125.993 15.2065 126.042 15.5751C125.991 15.9426 126.021 16.3167 126.13 16.6715C126.238 17.0263 126.423 17.3532 126.67 17.6296C126.918 17.9061 127.223 18.1253 127.564 18.2722C127.905 18.4191 128.274 18.4902 128.645 18.4804C129.179 18.5382 129.715 18.4067 130.162 18.1091ZM130.021 15.038H127.175C127.172 14.8459 127.209 14.6552 127.281 14.4772C127.353 14.2992 127.461 14.1375 127.597 14.0016C127.733 13.8657 127.895 13.7584 128.073 13.686C128.251 13.6136 128.442 13.5775 128.634 13.5799C128.824 13.5756 129.012 13.6109 129.187 13.6836C129.362 13.7563 129.52 13.8648 129.651 14.0021C129.781 14.1395 129.882 14.3026 129.945 14.481C130.009 14.6594 130.035 14.8491 130.021 15.038Z" fill="white"/>
</svg>
