<svg width="500" height="71" viewBox="0 0 500 71" fill="none" xmlns="http://www.w3.org/2000/svg">
<path fill-rule="evenodd" clip-rule="evenodd" d="M16.0261 10.0117C1.5018 12.4839 0.188384 18.7674 0.574668 21.6001C0.574668 26.2356 6.18636 29.2352 12.9358 27.3945C21.9954 24.9236 27.3479 26.3551 33.292 27.9448C35.7115 28.5919 38.229 29.2652 41.1345 29.7122C46.8272 30.588 49.9137 36.8002 52.7857 42.5808C54.2471 45.522 55.6528 48.3515 57.3181 50.3093C57.4501 51.5676 57.6001 52.7297 57.7445 53.3072C57.9851 54.2696 58.0758 54.183 58.4834 53.7941C58.7302 53.5586 59.0932 53.2123 59.6759 52.9209C59.9769 52.7704 60.2046 52.6786 60.3762 52.6339C60.5372 52.6968 60.6989 52.7536 60.8615 52.8044C60.8904 52.9289 60.8752 53.1007 60.8583 53.2916L60.8582 53.2916C60.8469 53.4199 60.8348 53.5567 60.8348 53.6935C60.8348 54.4661 60.8348 55.2386 61.6073 54.8523C62.2254 54.5433 62.6374 54.7236 62.7662 54.8523L63.5388 60.6466C63.7623 59.9761 63.9993 56.3013 64.162 53.101C67.4478 52.7667 70.9212 50.8057 74.3149 48.8897C77.1388 47.2954 79.9075 45.7322 82.4668 45.1635C85.665 44.4528 88.3729 47.2563 91.643 50.642C95.4822 54.6169 100.096 59.3942 107.189 60.2286C115.136 61.1635 119.53 56.7314 124.168 52.0537C127.195 49.0007 130.325 45.8431 134.615 44.0047C137.05 42.9612 137.873 43.516 139.12 44.3564C140.1 45.0166 141.341 45.853 143.831 46.2293C145.512 47.6556 145.517 48.7926 145.524 50.1012C145.526 50.5465 145.528 51.0117 145.597 51.5148C146.029 54.6886 146.396 56.0216 148.123 54.4347C149.545 53.1289 149.504 53.9721 149.445 55.196V55.1963C149.433 55.4597 149.419 55.7406 149.419 56.0216C149.419 57.6085 149.419 59.1954 150.283 58.402C150.974 57.7672 151.434 58.1375 151.578 58.402L152.442 70.3037C152.788 68.3994 153.162 54.6992 153.306 48.0872L153.785 46.1068C154.011 46.1192 154.299 46.0185 154.678 45.7903C155.705 45.1718 155.675 45.5712 155.633 46.151C155.624 46.2757 155.614 46.4089 155.614 46.542C155.614 47.2937 155.614 48.0454 156.238 47.6696C156.737 47.3689 157.069 47.5443 157.173 47.6696L157.797 53.3072C158.812 53.3072 158.763 47.0859 158.562 43.1597C163.631 40.2977 168.553 35.9638 173.026 32.0255L173.026 32.0254L173.026 32.0253C178.643 27.0803 183.551 22.7591 187.15 22.7591C194.109 22.7591 196.597 25.3388 200.465 29.3508C202.394 31.3515 204.667 33.7083 208.009 36.279C209.823 37.6746 211.541 39.3057 213.3 40.9752L213.3 40.9754C218.913 46.3041 224.939 52.0245 235.821 51.7303C247.927 51.4032 256.43 42.7624 261.565 37.5439L261.566 37.543L261.567 37.5423C262.494 36.6003 263.311 35.7699 264.02 35.1201C268.471 31.0403 272.565 35.1511 276.304 38.9045C276.459 39.0602 276.614 39.2153 276.767 39.3692C277.405 40.0072 278.021 40.4366 278.605 40.7051C278.596 40.8174 278.593 40.9339 278.598 41.0561C278.673 42.6343 278.825 43.3133 280.049 42.6923C281.056 42.1813 280.975 42.5872 280.857 43.1763C280.832 43.3031 280.805 43.4383 280.787 43.5748C280.684 44.3453 280.581 45.1157 281.193 44.8052C281.546 44.6264 281.607 49.5861 281.641 52.4312C281.655 53.5381 281.665 54.325 281.686 54.3644L281.824 50.7704C281.971 50.7701 282.072 49.7905 282.218 48.3598C282.53 45.3145 283.051 40.2257 284.682 38.1875L284.952 37.6482C297.996 24.2738 307.743 26.5277 314.725 28.1425L314.726 28.1426C315.358 28.2888 315.967 28.4297 316.555 28.5533C318.629 28.9901 320.488 29.4578 322.227 29.8952C326.638 31.0052 330.277 31.9207 334.71 31.6436C337.241 31.4854 337.958 30.5497 338.559 29.7652C339.426 28.6342 340.052 27.8176 345.526 30.0984C354.797 33.9613 360.591 35.1201 364.84 33.575C365.944 33.1735 367.048 32.086 368.465 30.6914C372.498 26.7194 379.06 20.2563 395.357 20.0551C415.348 19.8082 419.886 30.6003 423.176 38.4257C424.4 41.3381 425.452 43.8396 427.063 45.2081C427.568 48.2276 428.052 49.4513 430.083 47.8808C431.81 46.5442 431.761 47.4073 431.689 48.66C431.674 48.9296 431.657 49.2173 431.657 49.505C431.657 51.1292 431.657 52.7535 432.707 51.9414C433.547 51.2917 434.107 51.6707 434.282 51.9414L435.332 64.1232C435.697 62.4305 435.786 58.8105 435.918 53.4547V53.4544V53.4541V53.4524V53.4507C435.938 52.6406 435.959 51.7907 435.982 50.9018C435.982 50.9018 434.383 47.8615 436.44 45.8857C436.597 45.9542 436.816 45.9342 437.125 45.7903C437.425 45.6503 437.558 45.3471 437.683 45.0611L437.712 44.9953C437.89 44.8487 437.979 44.6969 437.996 44.5428C438.221 44.3456 438.587 44.3419 439.338 44.809L439.809 53.3072C440.182 52.2623 440.583 45.5941 440.799 41.1238C441.893 40.6997 443.194 40.3532 444.801 40.1418C454.646 38.8464 458.583 44.5015 461.274 48.3665C462.595 50.2642 463.616 51.7303 464.888 51.7303C470.682 51.7303 473.386 45.5498 474.931 40.1418C476.048 36.2336 479.566 30.871 485.747 28.5533C486.54 28.2558 487.311 27.9765 488.056 27.7069L488.057 27.7063L488.062 27.7045L488.064 27.7041C493.962 25.5678 498.182 24.0393 498.494 18.8962C498.993 10.6591 487.323 7.60608 482.004 6.21481L482.004 6.21473C481.337 6.04017 480.77 5.89176 480.339 5.76257C472.56 3.42897 455.617 2.67231 447.505 2.67231C443.703 2.67231 436.933 3.01163 429.737 3.37225C421.578 3.78115 412.873 4.21743 407.331 4.21743C402.454 4.21743 397.155 3.87958 391.512 3.51984C385.088 3.11026 378.219 2.67231 371.021 2.67231C363.053 2.67231 354.818 3.61133 348.053 4.38264C343.339 4.9202 339.338 5.3763 336.641 5.3763C331.53 5.3763 324.311 3.73786 317.902 2.28297C316.077 1.86883 314.318 1.46955 312.692 1.12717C305.352 -0.417961 291.833 -0.0316874 281.017 1.12719C279.226 1.31902 277.152 1.58274 274.844 1.87605C263.065 3.37353 245.215 5.64265 228.096 3.05863C217.409 1.44565 212.406 2.14799 205.78 3.07819C199.712 3.93008 192.282 4.97307 177.879 4.60376C171.314 4.43544 148.521 2.67229 137.319 1.12711C126.275 -0.396267 97.9182 -0.804112 83.6257 2.67236C82.9375 2.83975 82.0208 3.09824 80.9148 3.41012C74.1787 5.30956 60.4188 9.18956 48.4739 6.53514C37.6828 4.13713 27.357 6.99992 20.7453 8.83297C18.8366 9.36214 17.2375 9.80549 16.0261 10.0117Z" fill="#E1EDFA"/>
<path d="M17.5165 10.0117C2.99223 12.4839 1.67882 18.7674 2.0651 21.6001C2.26265 22.3903 3.224 23.6604 6.31427 23.9179C10.9497 24.3042 14.9005 24.3697 18.2891 23.9179C29.8776 22.3728 36.7864 23.4677 46.8741 24.6905C59.6214 26.2356 59.5208 37.775 66.9608 39.3692C72.3688 40.5281 80.4807 35.5064 87.4338 33.9613C93.2281 32.6737 95.9321 35.8927 109.066 37.4378C122.199 38.983 114.087 29.3259 134.56 33.1887C140.342 34.2796 144.604 36.279 151.557 33.1887C168.102 25.8352 179.673 18.8962 187.868 18.8962C198.297 18.8962 201.001 14.6471 211.045 22.3728C218.65 28.223 222.247 35.8927 233.449 25.463C237.699 21.506 250.414 34.2126 256.626 25.0767C263.193 15.4197 270.919 15.4197 276.327 19.2825C279.883 21.8227 282.893 24.3042 285.597 25.463C290.233 26.6219 292.937 24.3042 297.958 21.2139C304.346 17.283 308.854 17.4489 314.955 18.5099C323.839 20.0551 325.193 18.858 335.042 20.8276C340.836 21.9865 355.128 19.6688 359.377 18.1236C363.627 16.5785 377.533 17.3511 396.074 15.0334C411.808 13.0666 426.289 19.6505 431.612 28.167C433.544 31.2573 441.672 37.1024 446.291 29.7122C450.154 23.5316 455.948 18.1236 459.811 18.1236C467.537 18.1236 464.833 25.0767 471.786 26.2356C476.421 27.0082 477.752 26.2631 483.761 23.5316C488.01 21.6002 488.782 20.8276 496.508 20.0551C499.982 19.7077 499.997 18.6418 499.999 18.5107V18.5099C500.132 9.54984 485.638 6.90516 481.829 5.76257C474.051 3.42897 457.107 2.67231 448.995 2.67231C440.883 2.67231 419.251 4.21743 408.822 4.21743C398.392 4.21743 386.031 2.67231 372.511 2.67231C358.991 2.67231 344.699 5.3763 338.132 5.3763C331.565 5.3763 321.522 2.67231 314.182 1.12717C306.843 -0.417961 293.323 -0.0316873 282.507 1.12719C271.576 2.29842 250.059 6.14879 229.586 3.05863C209.113 -0.0315407 209.499 5.37633 179.369 4.60376C172.805 4.43544 150.012 2.67229 138.81 1.12711C127.765 -0.396267 99.4086 -0.804112 85.1161 2.67236C80.2367 3.85921 63.8705 9.62541 49.9643 6.53514C36.0581 3.44487 22.9245 9.09119 17.5165 10.0117Z" fill="white"/>
</svg>
