<svg width="170" height="50" viewBox="0 0 170 50" fill="none" xmlns="http://www.w3.org/2000/svg">
<rect x="1.48172" y="0.525548" width="167.458" height="48.9489" rx="4.72993" stroke="white" stroke-width="1.0511"/>
<path d="M163.224 49.4745H7.19725C4.05562 49.4745 1.48172 46.898 1.48172 43.75V6.25C1.48172 3.10204 4.05562 0.525548 7.19725 0.525548H163.224C166.366 0.525548 168.94 3.10204 168.94 6.25V43.75C168.94 46.898 166.366 49.4745 163.224 49.4745Z" stroke="white" stroke-width="1.0511"/>
<path d="M60.1457 12.7998C60.1457 13.8498 59.8337 14.6873 59.2096 15.2998C58.5106 16.0373 57.5869 16.4123 56.4635 16.4123C55.3776 16.4123 54.4664 16.0373 53.705 15.2873C52.9436 14.5373 52.5691 13.5998 52.5691 12.4998C52.5691 11.3873 52.9436 10.4623 53.705 9.71234C54.4664 8.96234 55.3776 8.58734 56.4635 8.58734C57.0003 8.58734 57.512 8.68734 57.9988 8.89984C58.4856 9.11234 58.8726 9.38734 59.1721 9.73734L58.5106 10.3998C58.0113 9.81234 57.3373 9.51234 56.4635 9.51234C55.6771 9.51234 54.9906 9.78734 54.4165 10.3498C53.8423 10.8998 53.5552 11.6248 53.5552 12.5123C53.5552 13.3998 53.8423 14.1248 54.4165 14.6748C54.9906 15.2248 55.6771 15.5123 56.4635 15.5123C57.2998 15.5123 57.9988 15.2373 58.5605 14.6748C58.9225 14.3123 59.1347 13.7998 59.1846 13.1498H56.4635V12.2373H60.0958C60.1208 12.4373 60.1457 12.6248 60.1457 12.7998Z" fill="white" stroke="white" stroke-width="0.210219" stroke-miterlimit="10"/>
<path d="M65.9004 9.67616H62.4929V12.0512H65.5634V12.9512H62.4929V15.3262H65.9004V16.2512H61.5319V8.75116H65.9004V9.67616Z" fill="white" stroke="white" stroke-width="0.210219" stroke-miterlimit="10"/>
<path d="M69.9569 16.2512H68.9958V9.67616H66.8988V8.75116H72.0414V9.67616H69.9444V16.2512H69.9569Z" fill="white" stroke="white" stroke-width="0.210219" stroke-miterlimit="10"/>
<path d="M75.7737 16.2512V8.75116H76.7348V16.2512H75.7737Z" fill="white" stroke="white" stroke-width="0.210219" stroke-miterlimit="10"/>
<path d="M81.0037 16.2512H80.0426V9.67616H77.9456V8.75116H83.0882V9.67616H80.9912V16.2512H81.0037Z" fill="white" stroke="white" stroke-width="0.210219" stroke-miterlimit="10"/>
<path d="M92.8372 15.2749C92.1007 16.0374 91.1895 16.4124 90.0911 16.4124C88.9927 16.4124 88.0815 16.0374 87.345 15.2749C86.6086 14.5124 86.2466 13.5874 86.2466 12.4999C86.2466 11.4124 86.6086 10.4749 87.345 9.7249C88.0815 8.9624 88.9927 8.5874 90.0911 8.5874C91.177 8.5874 92.0882 8.9624 92.8372 9.7249C93.5736 10.4874 93.9481 11.4124 93.9481 12.4999C93.9356 13.5999 93.5736 14.5249 92.8372 15.2749ZM88.0565 14.6499C88.6057 15.2124 89.2922 15.4874 90.0911 15.4874C90.8899 15.4874 91.5765 15.2124 92.1257 14.6499C92.6749 14.0874 92.962 13.3749 92.962 12.4999C92.962 11.6249 92.6874 10.9124 92.1257 10.3499C91.5765 9.7874 90.8899 9.4999 90.0911 9.4999C89.2922 9.4999 88.6057 9.7749 88.0565 10.3374C87.5073 10.9124 87.2202 11.6249 87.2202 12.4999C87.2202 13.3749 87.5073 14.0874 88.0565 14.6499Z" fill="white" stroke="white" stroke-width="0.210219" stroke-miterlimit="10"/>
<path d="M95.2955 16.2512V8.75116H96.4688L100.114 14.5887H100.151L100.114 13.1387V8.75116H101.075V16.2512H100.076L96.2691 10.1387H96.2317L96.2691 11.5887V16.2512H95.2955Z" fill="white" stroke="white" stroke-width="0.210219" stroke-miterlimit="10"/>
<mask id="path-10-inside-1_504_5739" fill="white">
<path d="M86.0078 27.187C83.0744 27.187 80.6779 29.4245 80.6779 32.4995C80.6779 35.562 83.0744 37.812 86.0078 37.812C88.9411 37.812 91.3376 35.562 91.3376 32.4995C91.3376 29.4245 88.9411 27.187 86.0078 27.187ZM86.0078 35.7245C84.3976 35.7245 83.012 34.3995 83.012 32.4995C83.012 30.587 84.3976 29.2745 86.0078 29.2745C87.6179 29.2745 89.0035 30.587 89.0035 32.4995C89.0035 34.3995 87.6055 35.7245 86.0078 35.7245ZM74.3744 27.187C71.4411 27.187 69.0445 29.4245 69.0445 32.4995C69.0445 35.562 71.4411 37.812 74.3744 37.812C77.3077 37.812 79.7043 35.562 79.7043 32.4995C79.7043 29.4245 77.3077 27.187 74.3744 27.187ZM74.3744 35.7245C72.7642 35.7245 71.3787 34.3995 71.3787 32.4995C71.3787 30.587 72.7642 29.2745 74.3744 29.2745C75.9846 29.2745 77.3701 30.587 77.3701 32.4995C77.3701 34.3995 75.9846 35.7245 74.3744 35.7245ZM60.5442 28.8245V31.0745H65.9365C65.7742 32.337 65.3498 33.2745 64.7132 33.912C63.9268 34.6995 62.7036 35.562 60.5567 35.562C57.2364 35.562 54.6401 32.887 54.6401 29.562C54.6401 26.237 57.2364 23.562 60.5567 23.562C62.3416 23.562 63.6522 24.262 64.6134 25.1745L66.1986 23.587C64.8505 22.2995 63.0656 21.312 60.5442 21.312C56.0007 21.312 52.1812 25.012 52.1812 29.5745C52.1812 34.1245 56.0007 37.837 60.5442 37.837C63.0032 37.837 64.8505 37.037 66.2984 35.5245C67.7838 34.037 68.2457 31.937 68.2457 30.2495C68.2457 29.7245 68.2082 29.237 68.1208 28.837H60.5442V28.8245ZM117.101 30.5745C116.664 29.387 115.316 27.187 112.557 27.187C109.824 27.187 107.552 29.337 107.552 32.4995C107.552 35.4745 109.799 37.812 112.819 37.812C115.253 37.812 116.664 36.3245 117.238 35.462L115.428 34.2495C114.829 35.137 114.005 35.7245 112.819 35.7245C111.634 35.7245 110.785 35.1745 110.248 34.112L117.35 31.1745L117.101 30.5745ZM109.861 32.3495C109.799 30.2995 111.446 29.2495 112.632 29.2495C113.556 29.2495 114.342 29.712 114.604 30.3745L109.861 32.3495ZM104.094 37.4995H106.429V21.8745H104.094V37.4995ZM100.275 28.3745H100.187C99.6632 27.7495 98.6646 27.187 97.3915 27.187C94.7328 27.187 92.2987 29.5245 92.2987 32.5245C92.2987 35.4995 94.7328 37.8245 97.3915 37.8245C98.6522 37.8245 99.6632 37.262 100.187 36.612H100.262V37.3745C100.262 39.412 99.1764 40.4995 97.4289 40.4995C96.0059 40.4995 95.1197 39.4745 94.7577 38.612L92.7231 39.462C93.3098 40.8745 94.8576 42.5995 97.4289 42.5995C100.162 42.5995 102.472 40.987 102.472 37.062V27.512H100.262V28.3745H100.275ZM97.5912 35.7245C95.981 35.7245 94.6329 34.3745 94.6329 32.5245C94.6329 30.6495 95.981 29.287 97.5912 29.287C99.1764 29.287 100.425 30.662 100.425 32.5245C100.437 34.3745 99.1889 35.7245 97.5912 35.7245ZM128.035 21.8745H122.456V37.4995H124.79V31.5745H128.048C130.631 31.5745 133.165 29.6995 133.165 26.7245C133.165 23.7495 130.606 21.8745 128.035 21.8745ZM128.085 29.3995H124.777V24.037H128.085C129.833 24.037 130.819 25.487 130.819 26.712C130.819 27.937 129.833 29.3995 128.085 29.3995ZM142.489 27.162C140.804 27.162 139.057 27.912 138.333 29.5495L140.405 30.412C140.842 29.5495 141.666 29.262 142.527 29.262C143.738 29.262 144.961 29.987 144.973 31.2745V31.437C144.549 31.1995 143.65 30.837 142.539 30.837C140.305 30.837 138.046 32.062 138.046 34.3495C138.046 36.437 139.868 37.787 141.915 37.787C143.476 37.787 144.349 37.087 144.886 36.262H144.961V37.4745H147.208V31.487C147.22 28.712 145.148 27.162 142.489 27.162ZM142.202 35.7245C141.441 35.7245 140.38 35.337 140.38 34.3995C140.38 33.1995 141.703 32.737 142.851 32.737C143.875 32.737 144.362 32.962 144.973 33.262C144.799 34.6995 143.55 35.7245 142.202 35.7245ZM155.408 27.4995L152.737 34.2745H152.662L149.891 27.4995H147.382L151.539 36.9745L149.167 42.237H151.601L158.005 27.4995H155.408ZM134.438 37.4995H136.773V21.8745H134.438V37.4995Z"/>
</mask>
<path d="M86.0078 27.187C83.0744 27.187 80.6779 29.4245 80.6779 32.4995C80.6779 35.562 83.0744 37.812 86.0078 37.812C88.9411 37.812 91.3376 35.562 91.3376 32.4995C91.3376 29.4245 88.9411 27.187 86.0078 27.187ZM86.0078 35.7245C84.3976 35.7245 83.012 34.3995 83.012 32.4995C83.012 30.587 84.3976 29.2745 86.0078 29.2745C87.6179 29.2745 89.0035 30.587 89.0035 32.4995C89.0035 34.3995 87.6055 35.7245 86.0078 35.7245ZM74.3744 27.187C71.4411 27.187 69.0445 29.4245 69.0445 32.4995C69.0445 35.562 71.4411 37.812 74.3744 37.812C77.3077 37.812 79.7043 35.562 79.7043 32.4995C79.7043 29.4245 77.3077 27.187 74.3744 27.187ZM74.3744 35.7245C72.7642 35.7245 71.3787 34.3995 71.3787 32.4995C71.3787 30.587 72.7642 29.2745 74.3744 29.2745C75.9846 29.2745 77.3701 30.587 77.3701 32.4995C77.3701 34.3995 75.9846 35.7245 74.3744 35.7245ZM60.5442 28.8245V31.0745H65.9365C65.7742 32.337 65.3498 33.2745 64.7132 33.912C63.9268 34.6995 62.7036 35.562 60.5567 35.562C57.2364 35.562 54.6401 32.887 54.6401 29.562C54.6401 26.237 57.2364 23.562 60.5567 23.562C62.3416 23.562 63.6522 24.262 64.6134 25.1745L66.1986 23.587C64.8505 22.2995 63.0656 21.312 60.5442 21.312C56.0007 21.312 52.1812 25.012 52.1812 29.5745C52.1812 34.1245 56.0007 37.837 60.5442 37.837C63.0032 37.837 64.8505 37.037 66.2984 35.5245C67.7838 34.037 68.2457 31.937 68.2457 30.2495C68.2457 29.7245 68.2082 29.237 68.1208 28.837H60.5442V28.8245ZM117.101 30.5745C116.664 29.387 115.316 27.187 112.557 27.187C109.824 27.187 107.552 29.337 107.552 32.4995C107.552 35.4745 109.799 37.812 112.819 37.812C115.253 37.812 116.664 36.3245 117.238 35.462L115.428 34.2495C114.829 35.137 114.005 35.7245 112.819 35.7245C111.634 35.7245 110.785 35.1745 110.248 34.112L117.35 31.1745L117.101 30.5745ZM109.861 32.3495C109.799 30.2995 111.446 29.2495 112.632 29.2495C113.556 29.2495 114.342 29.712 114.604 30.3745L109.861 32.3495ZM104.094 37.4995H106.429V21.8745H104.094V37.4995ZM100.275 28.3745H100.187C99.6632 27.7495 98.6646 27.187 97.3915 27.187C94.7328 27.187 92.2987 29.5245 92.2987 32.5245C92.2987 35.4995 94.7328 37.8245 97.3915 37.8245C98.6522 37.8245 99.6632 37.262 100.187 36.612H100.262V37.3745C100.262 39.412 99.1764 40.4995 97.4289 40.4995C96.0059 40.4995 95.1197 39.4745 94.7577 38.612L92.7231 39.462C93.3098 40.8745 94.8576 42.5995 97.4289 42.5995C100.162 42.5995 102.472 40.987 102.472 37.062V27.512H100.262V28.3745H100.275ZM97.5912 35.7245C95.981 35.7245 94.6329 34.3745 94.6329 32.5245C94.6329 30.6495 95.981 29.287 97.5912 29.287C99.1764 29.287 100.425 30.662 100.425 32.5245C100.437 34.3745 99.1889 35.7245 97.5912 35.7245ZM128.035 21.8745H122.456V37.4995H124.79V31.5745H128.048C130.631 31.5745 133.165 29.6995 133.165 26.7245C133.165 23.7495 130.606 21.8745 128.035 21.8745ZM128.085 29.3995H124.777V24.037H128.085C129.833 24.037 130.819 25.487 130.819 26.712C130.819 27.937 129.833 29.3995 128.085 29.3995ZM142.489 27.162C140.804 27.162 139.057 27.912 138.333 29.5495L140.405 30.412C140.842 29.5495 141.666 29.262 142.527 29.262C143.738 29.262 144.961 29.987 144.973 31.2745V31.437C144.549 31.1995 143.65 30.837 142.539 30.837C140.305 30.837 138.046 32.062 138.046 34.3495C138.046 36.437 139.868 37.787 141.915 37.787C143.476 37.787 144.349 37.087 144.886 36.262H144.961V37.4745H147.208V31.487C147.22 28.712 145.148 27.162 142.489 27.162ZM142.202 35.7245C141.441 35.7245 140.38 35.337 140.38 34.3995C140.38 33.1995 141.703 32.737 142.851 32.737C143.875 32.737 144.362 32.962 144.973 33.262C144.799 34.6995 143.55 35.7245 142.202 35.7245ZM155.408 27.4995L152.737 34.2745H152.662L149.891 27.4995H147.382L151.539 36.9745L149.167 42.237H151.601L158.005 27.4995H155.408ZM134.438 37.4995H136.773V21.8745H134.438V37.4995Z" fill="white" stroke="white" stroke-width="2.10219" mask="url(#path-10-inside-1_504_5739)"/>
<path d="M14.3847 11.0927L14.3847 11.0927L28.4138 24.6893C28.4139 24.6893 28.4139 24.6893 28.4139 24.6894C28.4312 24.7061 28.4449 24.7262 28.4544 24.7484C28.4638 24.7702 28.4688 24.7938 28.4691 24.8176C28.469 24.8422 28.4642 24.8665 28.4549 24.8891C28.4455 24.9121 28.4317 24.9329 28.4143 24.9505C28.4143 24.9505 28.4142 24.9506 28.4141 24.9507L14.6053 38.7794C14.605 38.7797 14.6048 38.7799 14.6045 38.7802C14.5853 38.799 14.5622 38.8133 14.5369 38.8222C14.5113 38.8312 14.484 38.8344 14.457 38.8315C14.4301 38.8287 14.404 38.8198 14.3808 38.8056L14.107 39.2532L14.3808 38.8056C14.3578 38.7915 14.338 38.7724 14.3231 38.7497C14.0838 38.3806 13.9648 37.9805 13.9648 37.5525V11.8709C13.967 11.6328 14.0078 11.3966 14.0857 11.1715L14.0857 11.1715L14.0876 11.1659C14.0973 11.1367 14.1143 11.1104 14.1368 11.0896C14.1594 11.0689 14.1867 11.0542 14.2163 11.0469C14.2459 11.0397 14.2769 11.0401 14.3063 11.0481C14.3357 11.056 14.3627 11.0714 14.3847 11.0927Z" fill="white" stroke="white" stroke-width="1.0511"/>
<path d="M30.1634 22.9511L30.1612 22.9489L17.0223 10.2142C17.0222 10.2142 17.0222 10.2141 17.0221 10.2141C16.9907 10.1835 16.9712 10.1426 16.967 10.0987C16.963 10.0553 16.9743 10.012 16.9989 9.97626C17.0243 9.94126 17.0611 9.91645 17.1028 9.90602C17.1427 9.89602 17.1848 9.8998 17.2223 9.91668L33.94 19.0848C33.9403 19.085 33.9406 19.0852 33.9409 19.0854C33.9653 19.0991 33.9863 19.1183 34.0022 19.1415C34.0184 19.165 34.0289 19.192 34.0329 19.2203C34.037 19.2487 34.0344 19.2776 34.0254 19.3047C34.0166 19.3316 34.0017 19.3561 33.982 19.3762C33.9818 19.3764 33.9816 19.3766 33.9814 19.3768L30.4154 22.9478L30.414 22.9493C30.3808 22.9828 30.3359 23.0016 30.2891 23.002C30.2423 23.0023 30.1971 22.9841 30.1634 22.9511Z" fill="white" stroke="white" stroke-width="1.0511"/>
<path d="M40.6555 22.7668L40.6556 22.7669C41.3772 23.1626 41.8042 23.8843 41.8042 24.7088C41.8042 25.5332 41.3772 26.2549 40.6556 26.6507C40.6556 26.6507 40.6556 26.6507 40.6556 26.6507L36.513 28.9222C36.5129 28.9223 36.5127 28.9224 36.5125 28.9225C36.4782 28.941 36.439 28.9481 36.4004 28.943C36.362 28.9378 36.326 28.9206 36.2977 28.8937C36.2975 28.8935 36.2973 28.8933 36.2971 28.8931L32.1931 24.9147C32.1759 24.898 32.1621 24.8779 32.1526 24.8557C32.1431 24.8335 32.1381 24.8096 32.1379 24.7854C32.1377 24.7612 32.1423 24.7372 32.1514 24.7148L31.6674 24.5174L32.1514 24.7148C32.1605 24.6925 32.1739 24.6722 32.1908 24.6552C32.1908 24.6552 32.1909 24.6551 32.1909 24.6551L36.3077 20.5324C36.3079 20.5322 36.3081 20.532 36.3083 20.5319C36.3365 20.5041 36.3728 20.4861 36.4117 20.4805C36.4507 20.475 36.4905 20.482 36.5252 20.5007C36.5254 20.5008 36.5256 20.5009 36.5259 20.501L40.6555 22.7668Z" fill="white" stroke="white" stroke-width="1.0511"/>
<path d="M18.4267 38.4393L18.4268 38.4394L18.4358 38.4304L30.1918 26.6575C30.2255 26.6238 30.2708 26.6049 30.318 26.6045C30.3652 26.6041 30.4108 26.6222 30.445 26.6553L33.9546 30.0554L33.9559 30.0566C33.9763 30.0762 33.9918 30.1004 34.0012 30.1273C34.0106 30.1542 34.0135 30.1829 34.0097 30.2111C34.0059 30.2394 33.9956 30.2663 33.9795 30.2897C33.9634 30.3131 33.9421 30.3322 33.9174 30.3457L33.9164 30.3463L18.6506 38.7175L18.6505 38.7173L18.6386 38.7243C18.6009 38.7462 18.5566 38.7535 18.514 38.7449L18.4101 39.2573L18.514 38.7449C18.4715 38.7362 18.4333 38.7122 18.407 38.6771C18.3807 38.642 18.3681 38.5984 18.3717 38.5544C18.3754 38.5105 18.395 38.4695 18.4267 38.4393Z" fill="white" stroke="white" stroke-width="1.0511"/>
</svg>
