<svg width="330" height="145" viewBox="0 0 330 145" fill="none" xmlns="http://www.w3.org/2000/svg">
<g clip-path="url(#clip0_41_34)">
<path d="M0 0V71.8904H248.37V144.013H330V0H0Z" fill="#FF267E"/>
<path d="M56.1211 34.5536H32.0031V27.5965H61.223V18.0884H18.0888V54.0336H32.0031V44.2936H56.1211V34.5536Z" fill="#000056"/>
<path d="M132.881 41.9745L119.895 18.0884H103.893L124.765 54.0336H140.534L161.405 18.0884H145.636L132.881 41.9745Z" fill="#000056"/>
<path d="M206.163 35.7131C209.873 33.8579 211.497 31.075 211.497 28.0603C211.497 22.0308 206.395 18.0884 196.655 18.0884H165.116V54.0336H197.35C207.786 54.0336 212.656 49.8593 212.656 43.8298C212.656 40.3512 210.801 37.3364 206.163 35.7131ZM178.798 26.6688H194.336C196.191 26.6688 197.35 27.8284 197.35 29.4517C197.35 31.075 195.959 32.2345 194.336 32.2345H178.798V26.6688ZM195.495 45.4531H178.798V39.8874H195.495C197.35 39.8874 198.51 41.0469 198.51 42.6702C198.742 44.2936 197.35 45.4531 195.495 45.4531Z" fill="#000056"/>
<path d="M233.295 39.8874H257.414V32.0026H233.295V27.5965H259.965V18.0884H219.381V54.0336H260.66V44.2936H233.295V39.8874Z" fill="#000056"/>
<path d="M266.458 18.0884V27.5965H281.996V54.0336H296.142V27.5965H311.911V18.0884H266.458Z" fill="#000056"/>
<path d="M77.4562 18.0884L56.5848 54.0336H71.4267L74.2096 48.6998H96.4724L99.2553 54.0336H114.793L93.9215 18.0884H77.4562ZM79.3115 39.4236L85.341 27.8284L91.3705 39.4236H79.3115Z" fill="#000056"/>
<path d="M262.052 101.111L273.879 122.214H289.185L277.358 101.111H262.052Z" fill="#000056"/>
<path d="M301.012 101.111L289.185 122.214H304.258L316.085 101.111H301.012Z" fill="#000056"/>
<path d="M289.184 80.4709L277.357 101.11H301.011L289.184 80.4709Z" fill="#000056"/>
</g>
<defs>
<clipPath id="clip0_41_34">
<rect width="330" height="144.013" fill="white"/>
</clipPath>
</defs>
</svg>
