<svg width="697" height="142" viewBox="0 0 697 142" fill="none" xmlns="http://www.w3.org/2000/svg">
<path opacity="0.3" fill-rule="evenodd" clip-rule="evenodd" d="M165.204 75.9335C164.256 76.0707 163.371 75.316 163.245 74.2869L162.827 70.5649L160.779 75.0526C160.653 75.3614 160.4 75.5329 160.116 75.5672C159.958 75.5672 159.768 75.5672 159.61 75.4986C159.2 75.2585 159.042 74.6753 159.263 74.195L162.444 67.1602L161.92 62.5066L159.878 67.0036C159.751 67.3124 159.498 67.4839 159.214 67.5182C159.025 67.5182 158.867 67.5182 158.709 67.4496C158.298 67.2094 158.109 66.6263 158.33 66.146L161.539 59.1133L161.013 54.438L158.951 58.956C158.825 59.2648 158.572 59.4363 158.288 59.4706C158.098 59.5049 157.94 59.4706 157.783 59.402C157.372 59.1619 157.182 58.613 157.403 58.1327L160.63 51.0308L159.735 43.0743L154.209 50.7422L153.673 57.6526C153.641 58.0986 153.357 58.4759 152.946 58.5102H152.757C152.283 58.4759 151.935 57.9957 151.967 57.4811L152.266 53.4389L149.575 57.1723L149.038 64.0912C149.007 64.5371 148.691 64.9145 148.28 64.9488H148.122C147.617 64.9145 147.301 64.4685 147.333 63.9539L147.634 59.8671L145.002 63.5187L144.566 69.136C144.534 69.582 144.25 69.9594 143.84 69.9937H143.65C143.176 69.9594 142.829 69.5134 142.892 68.9988L143.101 66.1566L141.508 68.3682C141.223 68.7799 140.813 69.0543 140.37 69.0886C139.928 69.1572 139.486 69.02 139.107 68.7113C138.349 68.0595 138.223 66.8931 138.791 66.0698L141.512 62.2894L136.441 64.1715L136.252 64.2058C135.841 64.2401 135.494 64 135.336 63.554C135.178 63.0737 135.431 62.5591 135.873 62.3876L143.39 59.6087C143.413 59.5994 143.435 59.5914 143.458 59.5847L146.224 55.7417L140.856 57.7341C140.824 57.7341 140.801 57.7427 140.777 57.7512C140.753 57.7598 140.73 57.7684 140.698 57.7684C140.287 57.8027 139.908 57.5626 139.782 57.1166C139.624 56.6363 139.877 56.1218 140.287 55.9502L147.805 53.1715C147.905 53.1328 148.008 53.1168 148.109 53.1212L150.889 49.2592L145.522 51.2595C145.459 51.2938 145.395 51.2938 145.332 51.2938C144.922 51.3624 144.574 51.088 144.416 50.6764C144.258 50.1619 144.511 49.6473 144.953 49.4758L152.471 46.7316C152.559 46.6948 152.652 46.6785 152.744 46.6805L156.889 40.9212L147.129 42.2204L143.212 45.8478C143.054 45.9851 142.896 46.0537 142.738 46.0537C142.454 46.088 142.169 45.9851 141.98 45.7449C141.664 45.3333 141.727 44.7501 142.074 44.407L144.009 42.6356L140.268 43.1337L135.616 47.4413C135.49 47.5442 135.332 47.6129 135.142 47.6472C134.858 47.6815 134.574 47.5786 134.384 47.3041C134.068 46.9268 134.132 46.3093 134.479 46.0005L137.139 43.5502L132.069 44.225L128.573 47.4625C128.447 47.5997 128.257 47.6683 128.099 47.6683C127.815 47.7026 127.531 47.5997 127.341 47.3595C127.026 46.9479 127.089 46.3647 127.436 46.0217L128.933 44.6425L127.966 44.7712C127.018 44.9084 126.166 44.188 126.039 43.1246C125.913 42.1298 126.608 41.1692 127.555 41.032L132.378 40.3897L126.478 37.2146C126.036 36.9744 125.878 36.3913 126.099 35.9453C126.289 35.465 126.826 35.2935 127.236 35.4993L134.343 39.3072C134.607 39.4615 134.767 39.7575 134.797 40.0676L138.127 39.6241L133.544 37.1574C133.101 36.9173 132.943 36.3684 133.165 35.9224C133.354 35.4422 133.891 35.2707 134.302 35.4765L141.263 39.2064L146.55 38.5024L141.164 35.6041C140.722 35.3639 140.533 34.7808 140.754 34.3348C140.975 33.8545 141.512 33.683 141.922 33.8889L149.029 37.6966C149.195 37.7935 149.32 37.9462 149.397 38.1232L156.584 37.1661L149.563 31.2069L143.12 30.6168C142.615 30.5824 142.299 30.1365 142.33 29.6219C142.362 29.1073 142.773 28.6956 143.246 28.7642L147.077 29.0971L142.068 24.8451L137.135 24.395C136.661 24.3607 136.346 23.9147 136.377 23.4001C136.409 22.8855 136.819 22.4738 137.293 22.5424L139.592 22.7429L136.385 20.0211L131.426 19.5668C130.921 19.5668 130.605 19.0865 130.636 18.572C130.699 18.0574 131.11 17.6457 131.584 17.7143L133.92 17.9283L133.54 17.6056C132.813 16.9881 132.655 15.7875 133.224 14.9641C133.824 14.1751 134.929 14.0379 135.656 14.6554L138.597 17.1518L136.633 10.9098C136.475 10.3952 136.727 9.88068 137.17 9.70916C137.612 9.53764 138.149 9.81207 138.243 10.2923L140.802 18.4225C140.867 18.634 140.868 18.8455 140.813 19.0332L144.302 21.9947L142.351 15.7431C142.193 15.2286 142.446 14.714 142.856 14.5425C143.33 14.3709 143.835 14.6111 143.962 15.1256L146.489 23.2559C146.553 23.4661 146.555 23.6763 146.503 23.8631L150.352 27.1296L148.305 20.5712C148.147 20.0567 148.399 19.5421 148.81 19.3706C149.284 19.199 149.789 19.4392 149.915 19.9537L152.442 28.0839C152.527 28.3611 152.503 28.6383 152.392 28.8619L158.742 34.2521L157.693 24.9216L153.268 19.2558C152.984 18.8441 153.016 18.261 153.363 17.9179C153.742 17.5749 154.279 17.6092 154.563 18.0208L157.313 21.5377L156.759 16.6158L152.329 10.9785C152.045 10.6012 152.108 10.018 152.456 9.67493C152.803 9.33188 153.372 9.36619 153.656 9.77784L156.38 13.2443L155.856 8.58817L151.563 3.12509C151.279 2.74774 151.342 2.16457 151.658 1.82153C152.037 1.47848 152.606 1.51279 152.89 1.92444L155.477 5.21669L155.127 2.10936C155.001 1.08021 155.664 0.153978 156.644 0.0167588C157.591 -0.120461 158.412 0.599942 158.539 1.62909L158.916 4.96204L160.937 0.513078C161.158 0.0671176 161.664 -0.13871 162.074 0.101422C162.517 0.30725 162.706 0.890429 162.485 1.37069L159.3 8.35064L159.826 12.994L161.832 8.53927C162.053 8.0933 162.558 7.88747 163 8.12761C163.442 8.33344 163.6 8.91663 163.379 9.39691L160.207 16.3506L160.741 21.0694L162.758 16.6095C162.979 16.1635 163.484 15.9577 163.926 16.1978C164.369 16.4036 164.558 16.9868 164.337 17.4328L161.124 24.4442L162.16 33.596L167.403 26.311L167.973 18.5665C168.036 18.0862 168.447 17.6745 168.953 17.7088C169.395 17.7774 169.742 18.2234 169.711 18.738L169.331 23.6322L172.043 19.8629L172.613 12.1281C172.644 11.6135 173.055 11.2361 173.56 11.2704C174.003 11.3047 174.382 11.7507 174.35 12.2996L173.971 17.1841L176.462 13.7226L177.054 5.68789C177.085 5.17331 177.528 4.79596 178.001 4.83026C178.475 4.86457 178.823 5.34484 178.791 5.85941L178.39 11.0431L180.043 8.74632C180.611 7.923 181.717 7.78578 182.475 8.43757C183.202 9.05506 183.359 10.2557 182.791 11.079L181.664 12.6425L185.251 11.3331C185.693 11.1273 186.167 11.436 186.325 11.9163C186.483 12.3965 186.23 12.9454 185.788 13.0826L179.726 15.3329L176.895 19.2606L180.974 17.7716C181.416 17.5658 181.89 17.8745 182.048 18.3548C182.206 18.835 181.953 19.3839 181.479 19.5211L174.955 21.953L172.32 25.6095L176.153 24.2102C176.595 24.0044 177.101 24.3131 177.227 24.7934C177.385 25.2736 177.164 25.8225 176.69 25.9597L170.38 28.302L164.779 36.0747L172.237 35.0815C172.287 34.9603 172.361 34.8487 172.456 34.755L178.489 29.1976C178.868 28.8546 179.373 28.9232 179.689 29.3005C180.005 29.7122 179.974 30.2954 179.594 30.6384L175.199 34.6869L180.915 33.9257L186.073 29.1748C186.42 28.8317 186.957 28.9003 187.273 29.2777C187.589 29.6894 187.557 30.2725 187.178 30.6156L184.036 33.5101L187.153 33.095L193.138 27.6157C193.517 27.2383 194.022 27.3069 194.338 27.6843C194.654 28.096 194.622 28.6792 194.243 29.0222L190.273 32.6795L194.013 32.1813C194.992 32.0784 195.845 32.7988 195.94 33.828C196.066 34.8571 195.403 35.7834 194.455 35.9206L192.48 36.1835L195.292 37.6966C195.703 37.9367 195.892 38.5198 195.671 38.9658C195.576 39.2745 195.292 39.446 195.008 39.4803C194.85 39.4803 194.692 39.4803 194.534 39.4117L189.317 36.6045L184.329 37.2685L188.092 39.2843C188.502 39.5244 188.692 40.0733 188.471 40.5535C188.376 40.8623 188.092 41.0338 187.807 41.0681C187.649 41.0681 187.491 41.0681 187.334 40.9652L181.231 37.6809L178.219 38.0819L180.495 39.3073C180.938 39.5474 181.096 40.1306 180.906 40.5766C180.78 40.8854 180.495 41.0569 180.243 41.0912C180.053 41.0912 179.895 41.0912 179.737 41.0226L175.056 38.5029L165.283 39.8038L171.592 45.1591L178.539 45.7651C179.044 45.8337 179.36 46.2797 179.329 46.7943C179.297 47.2402 178.981 47.5833 178.57 47.6519H178.413L174.061 47.2549L177.233 49.9478L184.65 50.5948C185.155 50.6634 185.471 51.1093 185.439 51.6239C185.408 52.0698 185.092 52.4471 184.681 52.4814H184.523L179.7 52.0414L182.94 54.7915L190.237 55.4573C190.711 55.4916 191.058 55.9375 190.995 56.4522C190.963 56.8981 190.679 57.2755 190.268 57.3098H190.079L185.402 56.8814L188.437 59.4576C189.195 60.0751 189.353 61.2757 188.753 62.0647C188.437 62.5107 188.058 62.7508 187.584 62.7851C187.142 62.8538 186.699 62.7165 186.32 62.4078L183.536 60.0445L185.052 64.9201C185.21 65.4004 184.988 65.9493 184.546 66.1208L184.357 66.1551C183.946 66.1894 183.567 65.9493 183.441 65.5033L181.102 57.9781L178.021 55.363L179.486 60.0754C179.644 60.59 179.423 61.1046 178.949 61.2761C178.886 61.3104 178.854 61.3104 178.791 61.3104C178.38 61.3447 178.001 61.1046 177.875 60.6586L175.534 53.252L172.376 50.571L173.409 53.8538C173.567 54.3683 173.346 54.8829 172.872 55.0545C172.809 55.0888 172.745 55.0888 172.714 55.0888C172.303 55.1231 171.924 54.8829 171.798 54.437L169.916 48.4836L163.201 42.7834L164.18 51.4275L168.394 56.7902C168.679 57.2018 168.647 57.785 168.3 58.128C168.173 58.231 167.984 58.3339 167.826 58.3339C167.541 58.3682 167.257 58.2653 167.068 58.0251L164.563 54.8006L165.09 59.4533L169.321 64.8376C169.605 65.215 169.573 65.8324 169.226 66.1755C169.099 66.2784 168.942 66.347 168.752 66.3813C168.468 66.4156 168.183 66.3127 168.026 66.0383L165.467 62.7819L165.996 67.4523L170.266 72.8866C170.55 73.2983 170.487 73.8814 170.14 74.2245C170.013 74.3274 169.855 74.396 169.697 74.4303C169.413 74.4646 169.097 74.3617 168.939 74.0873L166.378 70.828L166.72 73.8409C166.814 74.87 166.151 75.8306 165.204 75.9335Z" fill="white"/>
<path opacity="0.2" fill-rule="evenodd" clip-rule="evenodd" d="M378.744 141.99C378.17 142.073 377.635 141.616 377.558 140.993L377.305 138.739L376.064 141.457C375.988 141.644 375.835 141.748 375.663 141.768C375.567 141.768 375.452 141.768 375.356 141.727C375.108 141.581 375.012 141.228 375.146 140.937L377.073 136.676L376.756 133.858L375.518 136.582C375.442 136.769 375.289 136.873 375.117 136.893C375.002 136.893 374.906 136.893 374.811 136.852C374.562 136.706 374.447 136.353 374.581 136.062L376.524 131.803L376.206 128.971L374.957 131.708C374.881 131.895 374.728 131.998 374.556 132.019C374.441 132.04 374.345 132.019 374.25 131.978C374.001 131.832 373.886 131.5 374.02 131.209L375.974 126.908L375.432 122.089L372.085 126.733L371.76 130.918C371.741 131.188 371.569 131.417 371.32 131.438H371.205C370.919 131.417 370.708 131.126 370.727 130.814L370.908 128.366L369.279 130.627L368.953 134.818C368.934 135.088 368.743 135.316 368.494 135.337H368.399C368.093 135.316 367.901 135.046 367.92 134.735L368.103 132.259L366.509 134.471L366.245 137.873C366.226 138.143 366.053 138.372 365.805 138.393H365.69C365.403 138.372 365.193 138.102 365.231 137.79L365.358 136.069L364.392 137.408C364.22 137.657 363.972 137.824 363.704 137.844C363.436 137.886 363.168 137.803 362.938 137.616C362.479 137.221 362.403 136.515 362.747 136.016L364.395 133.726L361.324 134.866L361.209 134.887C360.961 134.908 360.75 134.763 360.654 134.492C360.559 134.201 360.712 133.89 360.98 133.786L365.533 132.103C365.546 132.097 365.56 132.092 365.574 132.088L367.249 129.761L363.998 130.967C363.979 130.967 363.964 130.973 363.95 130.978C363.936 130.983 363.921 130.988 363.902 130.988C363.653 131.009 363.424 130.864 363.347 130.593C363.252 130.303 363.405 129.991 363.653 129.887L368.206 128.204C368.267 128.181 368.329 128.171 368.391 128.174L370.074 125.835L366.824 127.046C366.785 127.067 366.747 127.067 366.709 127.067C366.46 127.108 366.25 126.942 366.154 126.693C366.058 126.381 366.211 126.07 366.479 125.966L371.032 124.304C371.086 124.281 371.142 124.272 371.198 124.273L373.708 120.784L367.797 121.571L365.424 123.768C365.329 123.852 365.233 123.893 365.137 123.893C364.965 123.914 364.793 123.852 364.678 123.706C364.487 123.457 364.525 123.104 364.736 122.896L365.908 121.823L363.642 122.125L360.824 124.734C360.748 124.796 360.652 124.837 360.537 124.858C360.365 124.879 360.193 124.817 360.078 124.65C359.887 124.422 359.925 124.048 360.135 123.861L361.747 122.377L358.676 122.785L356.559 124.746C356.482 124.829 356.367 124.871 356.272 124.871C356.099 124.892 355.927 124.829 355.812 124.684C355.621 124.435 355.659 124.081 355.87 123.874L356.777 123.038L356.191 123.116C355.617 123.199 355.1 122.763 355.024 122.119C354.947 121.516 355.368 120.935 355.942 120.852L358.863 120.463L355.29 118.54C355.022 118.394 354.926 118.041 355.06 117.771C355.175 117.48 355.5 117.376 355.749 117.501L360.053 119.807C360.213 119.9 360.31 120.08 360.328 120.268L362.345 119.999L359.569 118.505C359.301 118.359 359.205 118.027 359.339 117.757C359.454 117.466 359.779 117.362 360.028 117.487L364.244 119.746L367.446 119.32L364.185 117.564C363.917 117.419 363.802 117.065 363.936 116.795C364.07 116.505 364.395 116.401 364.644 116.525L368.948 118.832C369.048 118.89 369.124 118.983 369.171 119.09L373.523 118.51L369.271 114.901L365.369 114.544C365.063 114.523 364.872 114.253 364.891 113.941C364.91 113.629 365.159 113.38 365.446 113.421L367.766 113.623L364.732 111.048L361.744 110.775C361.457 110.754 361.266 110.484 361.285 110.173C361.304 109.861 361.553 109.612 361.84 109.653L363.232 109.775L361.29 108.126L358.286 107.851C357.98 107.851 357.789 107.56 357.808 107.248C357.846 106.937 358.095 106.687 358.382 106.729L359.797 106.858L359.566 106.663C359.126 106.289 359.031 105.562 359.375 105.063C359.739 104.585 360.408 104.502 360.848 104.876L362.629 106.388L361.44 102.608C361.344 102.296 361.497 101.984 361.765 101.881C362.033 101.777 362.358 101.943 362.415 102.234L363.965 107.158C364.004 107.286 364.005 107.414 363.972 107.528L366.085 109.321L364.903 105.535C364.808 105.223 364.961 104.912 365.209 104.808C365.496 104.704 365.802 104.849 365.879 105.161L367.409 110.085C367.448 110.213 367.449 110.34 367.418 110.453L369.749 112.431L368.509 108.459C368.413 108.148 368.566 107.836 368.815 107.732C369.102 107.628 369.408 107.774 369.485 108.085L371.015 113.009C371.067 113.177 371.052 113.345 370.985 113.481L374.831 116.745L374.195 111.094L371.516 107.663C371.343 107.413 371.362 107.06 371.573 106.852C371.802 106.644 372.128 106.665 372.3 106.915L373.965 109.045L373.63 106.064L370.947 102.649C370.775 102.421 370.813 102.068 371.023 101.86C371.234 101.652 371.578 101.673 371.75 101.922L373.4 104.022L373.083 101.202L370.483 97.8928C370.311 97.6642 370.349 97.311 370.54 97.1032C370.77 96.8955 371.114 96.9162 371.286 97.1656L372.853 99.1596L372.641 97.2776C372.565 96.6542 372.967 96.0933 373.56 96.0102C374.134 95.927 374.631 96.3634 374.708 96.9867L374.936 99.0053L376.16 96.3108C376.294 96.0407 376.6 95.916 376.849 96.0614C377.117 96.1861 377.232 96.5393 377.098 96.8302L375.169 101.058L375.487 103.87L376.702 101.172C376.836 100.902 377.142 100.777 377.41 100.923C377.678 101.047 377.773 101.4 377.639 101.691L375.718 105.903L376.042 108.761L377.263 106.06C377.397 105.79 377.703 105.665 377.971 105.81C378.239 105.935 378.353 106.288 378.219 106.558L376.273 110.805L376.901 116.348L380.076 111.936L380.422 107.245C380.46 106.954 380.709 106.705 381.015 106.726C381.283 106.767 381.493 107.037 381.474 107.349L381.244 110.313L382.887 108.03L383.232 103.346C383.251 103.034 383.5 102.805 383.806 102.826C384.074 102.847 384.303 103.117 384.284 103.449L384.054 106.408L385.563 104.311L385.921 99.445C385.941 99.1333 386.208 98.9048 386.495 98.9255C386.782 98.9463 386.993 99.2372 386.974 99.5489L386.731 102.688L387.732 101.297C388.076 100.799 388.746 100.716 389.205 101.11C389.645 101.484 389.741 102.211 389.396 102.71L388.714 103.657L390.886 102.864C391.154 102.739 391.441 102.926 391.537 103.217C391.632 103.508 391.479 103.841 391.211 103.924L387.54 105.287L385.825 107.665L388.296 106.764C388.564 106.639 388.851 106.826 388.946 107.117C389.042 107.408 388.889 107.74 388.602 107.823L384.65 109.296L383.054 111.511L385.376 110.663C385.644 110.539 385.95 110.726 386.026 111.016C386.122 111.307 385.988 111.64 385.701 111.723L381.879 113.142L378.487 117.849L383.004 117.248C383.035 117.174 383.079 117.107 383.137 117.05L386.791 113.684C387.02 113.476 387.326 113.518 387.518 113.746C387.709 113.996 387.69 114.349 387.46 114.557L384.798 117.009L388.26 116.548L391.384 113.67C391.594 113.462 391.92 113.504 392.111 113.732C392.302 113.982 392.283 114.335 392.054 114.543L390.15 116.296L392.038 116.044L395.663 112.726C395.893 112.497 396.199 112.539 396.39 112.767C396.581 113.017 396.562 113.37 396.333 113.578L393.928 115.793L396.193 115.491C396.786 115.429 397.303 115.865 397.36 116.488C397.437 117.112 397.035 117.673 396.461 117.756L395.265 117.915L396.968 118.831C397.216 118.977 397.331 119.33 397.197 119.6C397.14 119.787 396.968 119.891 396.795 119.912C396.7 119.912 396.604 119.912 396.509 119.87L393.349 118.17L390.328 118.572L392.607 119.793C392.855 119.939 392.97 120.271 392.836 120.562C392.779 120.749 392.607 120.853 392.435 120.873C392.339 120.873 392.243 120.873 392.148 120.811L388.451 118.822L386.627 119.065L388.006 119.807C388.274 119.952 388.369 120.306 388.255 120.576C388.178 120.763 388.006 120.867 387.853 120.888C387.738 120.888 387.642 120.888 387.547 120.846L384.711 119.32L378.792 120.108L382.613 123.351L386.821 123.718C387.127 123.76 387.318 124.03 387.299 124.342C387.28 124.612 387.089 124.82 386.84 124.861H386.744L384.109 124.621L386.03 126.252L390.522 126.643C390.828 126.685 391.019 126.955 391 127.267C390.981 127.537 390.79 127.765 390.541 127.786H390.446L387.524 127.52L389.486 129.185L393.906 129.589C394.193 129.609 394.403 129.879 394.365 130.191C394.346 130.461 394.174 130.69 393.925 130.711H393.81L390.978 130.451L392.816 132.011C393.275 132.385 393.37 133.113 393.007 133.59C392.816 133.861 392.586 134.006 392.299 134.027C392.031 134.068 391.764 133.985 391.534 133.798L389.848 132.367L390.765 135.32C390.861 135.611 390.727 135.943 390.459 136.047L390.345 136.068C390.096 136.089 389.866 135.943 389.79 135.673L388.373 131.115L386.507 129.531L387.394 132.386C387.49 132.697 387.356 133.009 387.069 133.113C387.031 133.134 387.012 133.134 386.974 133.134C386.725 133.154 386.495 133.009 386.419 132.739L385.001 128.253L383.088 126.629L383.714 128.617C383.809 128.929 383.675 129.241 383.389 129.345C383.35 129.365 383.312 129.365 383.293 129.365C383.044 129.386 382.815 129.241 382.738 128.971L381.599 125.365L377.531 121.912L378.125 127.148L380.677 130.396C380.849 130.645 380.83 130.998 380.619 131.206C380.543 131.268 380.428 131.331 380.332 131.331C380.16 131.352 379.988 131.289 379.873 131.144L378.356 129.191L378.675 132.009L381.238 135.27C381.41 135.498 381.391 135.872 381.18 136.08C381.104 136.142 381.008 136.184 380.893 136.205C380.721 136.226 380.549 136.163 380.453 135.997L378.904 134.025L379.224 136.853L381.81 140.145C381.983 140.394 381.944 140.747 381.734 140.955C381.657 141.017 381.562 141.059 381.466 141.08C381.294 141.101 381.103 141.038 381.007 140.872L379.456 138.898L379.662 140.723C379.72 141.346 379.318 141.928 378.744 141.99Z" fill="white"/>
<path opacity="0.2" fill-rule="evenodd" clip-rule="evenodd" d="M685.687 114.994C685.35 115.043 685.036 114.775 684.991 114.409L684.842 113.086L684.114 114.681C684.069 114.791 683.979 114.852 683.878 114.864C683.822 114.864 683.755 114.864 683.699 114.84C683.553 114.754 683.497 114.547 683.575 114.376L684.706 111.875L684.52 110.221L683.794 111.82C683.749 111.929 683.659 111.99 683.558 112.003C683.49 112.003 683.434 112.003 683.378 111.978C683.232 111.893 683.165 111.686 683.243 111.515L684.384 109.015L684.197 107.353L683.464 108.959C683.419 109.069 683.33 109.13 683.229 109.142C683.161 109.154 683.105 109.142 683.049 109.117C682.903 109.032 682.836 108.837 682.914 108.666L684.061 106.141L683.743 103.313L681.779 106.039L681.588 108.495C681.577 108.654 681.476 108.788 681.33 108.8H681.262C681.094 108.788 680.97 108.617 680.981 108.434L681.088 106.997L680.131 108.325L679.94 110.784C679.929 110.943 679.817 111.077 679.671 111.089H679.615C679.435 111.077 679.323 110.919 679.334 110.736L679.441 109.283L678.505 110.581L678.35 112.578C678.339 112.736 678.238 112.87 678.092 112.883H678.025C677.856 112.87 677.733 112.712 677.755 112.529L677.83 111.519L677.263 112.305C677.162 112.451 677.016 112.549 676.859 112.561C676.702 112.585 676.545 112.536 676.41 112.427C676.14 112.195 676.095 111.78 676.297 111.488L677.265 110.144L675.462 110.813L675.395 110.825C675.249 110.837 675.125 110.752 675.069 110.593C675.013 110.423 675.103 110.24 675.26 110.179L677.933 109.191C677.94 109.188 677.948 109.185 677.957 109.182L678.94 107.816L677.032 108.524C677.02 108.524 677.012 108.527 677.003 108.531C676.995 108.534 676.987 108.537 676.975 108.537C676.829 108.549 676.695 108.463 676.65 108.305C676.594 108.134 676.683 107.951 676.829 107.89L679.502 106.902C679.537 106.889 679.574 106.883 679.61 106.885L680.598 105.512L678.69 106.223C678.668 106.235 678.645 106.235 678.623 106.235C678.477 106.259 678.353 106.162 678.297 106.015C678.241 105.832 678.331 105.65 678.488 105.589L681.161 104.613C681.192 104.6 681.225 104.594 681.258 104.595L682.731 102.547L679.262 103.009L677.869 104.299C677.813 104.348 677.757 104.372 677.701 104.372C677.599 104.384 677.498 104.348 677.431 104.262C677.319 104.116 677.341 103.909 677.465 103.787L678.153 103.157L676.823 103.334L675.169 104.865C675.124 104.902 675.068 104.926 675 104.939C674.899 104.951 674.798 104.914 674.731 104.817C674.619 104.682 674.641 104.463 674.765 104.353L675.71 103.482L673.908 103.722L672.665 104.873C672.62 104.922 672.553 104.946 672.497 104.946C672.396 104.958 672.294 104.922 672.227 104.836C672.115 104.69 672.137 104.483 672.261 104.361L672.793 103.87L672.449 103.916C672.112 103.965 671.809 103.709 671.764 103.331C671.719 102.977 671.966 102.636 672.303 102.587L674.018 102.358L671.92 101.23C671.763 101.144 671.707 100.937 671.786 100.779C671.853 100.608 672.044 100.547 672.19 100.62L674.716 101.974C674.81 102.029 674.867 102.134 674.877 102.244L676.061 102.086L674.432 101.209C674.275 101.124 674.219 100.929 674.297 100.77C674.365 100.6 674.555 100.539 674.701 100.612L677.176 101.938L679.056 101.688L677.141 100.657C676.984 100.572 676.917 100.365 676.995 100.206C677.074 100.035 677.265 99.9743 677.411 100.047L679.937 101.401C679.996 101.436 680.04 101.49 680.068 101.553L682.623 101.212L680.127 99.094L677.836 98.8842C677.657 98.872 677.544 98.7135 677.556 98.5305C677.567 98.3476 677.713 98.2012 677.881 98.2256L679.243 98.3439L677.462 96.8324L675.709 96.6724C675.54 96.6602 675.428 96.5016 675.439 96.3187C675.451 96.1357 675.597 95.9894 675.765 96.0138L676.582 96.0851L675.442 95.1174L673.679 94.956C673.5 94.956 673.387 94.7852 673.398 94.6023C673.421 94.4194 673.567 94.273 673.735 94.2974L674.566 94.3735L674.431 94.2588C674.172 94.0393 674.116 93.6124 674.318 93.3198C674.532 93.0393 674.925 92.9905 675.183 93.21L676.228 94.0975L675.53 91.8784C675.474 91.6955 675.564 91.5125 675.721 91.4516C675.878 91.3906 676.069 91.4882 676.103 91.6589L677.012 94.5492C677.035 94.6244 677.036 94.6996 677.016 94.7663L678.257 95.8191L677.563 93.5966C677.507 93.4137 677.597 93.2308 677.743 93.1698C677.911 93.1088 678.091 93.1942 678.136 93.3771L679.034 96.2674C679.057 96.3421 679.057 96.4169 679.039 96.4833L680.407 97.6446L679.679 95.3131C679.623 95.1301 679.713 94.9472 679.859 94.8862C680.028 94.8253 680.207 94.9106 680.252 95.0936L681.15 97.9838C681.181 98.0824 681.172 98.1809 681.133 98.2604L683.39 100.177L683.017 96.8596L681.444 94.8454C681.343 94.6991 681.354 94.4917 681.478 94.3698C681.613 94.2478 681.803 94.26 681.905 94.4064L682.882 95.6567L682.685 93.907L681.11 91.9029C681.009 91.7687 681.032 91.5614 681.155 91.4394C681.279 91.3175 681.481 91.3297 681.582 91.476L682.55 92.7084L682.364 91.0531L680.838 89.111C680.737 88.9768 680.759 88.7695 680.872 88.6475C681.006 88.5256 681.209 88.5378 681.31 88.6841L682.229 89.8545L682.105 88.7499C682.06 88.384 682.296 88.0547 682.644 88.006C682.981 87.9572 683.273 88.2133 683.318 88.5791L683.452 89.764L684.17 88.1824C684.249 88.0239 684.429 87.9507 684.575 88.0361C684.732 88.1092 684.799 88.3165 684.721 88.4873L683.588 90.9686L683.775 92.6193L684.488 91.0356C684.567 90.8771 684.747 90.8039 684.904 90.8893C685.061 90.9625 685.117 91.1698 685.039 91.3405L683.911 93.8126L684.101 95.4901L684.818 93.9047C684.896 93.7461 685.076 93.6729 685.233 93.7583C685.39 93.8315 685.458 94.0388 685.379 94.1973L684.237 96.6899L684.605 99.9433L686.469 97.3534L686.672 94.6003C686.694 94.4296 686.84 94.2833 687.02 94.2954C687.177 94.3198 687.301 94.4784 687.289 94.6613L687.154 96.4012L688.119 95.0612L688.321 92.3115C688.332 92.1286 688.478 91.9945 688.658 92.0066C688.815 92.0188 688.95 92.1774 688.939 92.3725L688.804 94.1089L689.689 92.8783L689.9 90.022C689.911 89.8391 690.068 89.7049 690.237 89.7171C690.405 89.7293 690.529 89.9001 690.517 90.083L690.375 91.9257L690.962 91.1093C691.165 90.8166 691.558 90.7678 691.827 90.9995C692.085 91.219 692.141 91.6458 691.939 91.9385L691.539 92.4944L692.814 92.0289C692.971 91.9557 693.14 92.0655 693.196 92.2362C693.252 92.407 693.162 92.6021 693.005 92.6509L690.85 93.4509L689.843 94.8471L691.293 94.3178C691.451 94.2446 691.619 94.3544 691.675 94.5251C691.731 94.6958 691.642 94.8909 691.473 94.9397L689.154 95.8043L688.217 97.1042L689.58 96.6067C689.737 96.5335 689.917 96.6433 689.961 96.814C690.018 96.9848 689.939 97.1799 689.771 97.2287L687.527 98.0614L685.536 100.824L688.187 100.471C688.205 100.428 688.232 100.389 688.265 100.355L690.41 98.3797C690.545 98.2578 690.724 98.2822 690.837 98.4163C690.949 98.5626 690.938 98.77 690.803 98.8919L689.241 100.331L691.273 100.06L693.106 98.3716C693.23 98.2497 693.42 98.2741 693.533 98.4082C693.645 98.5545 693.634 98.7619 693.499 98.8838L692.382 99.9127L693.49 99.7652L695.618 97.8173C695.752 97.6832 695.932 97.7075 696.044 97.8417C696.157 97.988 696.145 98.1954 696.011 98.3173L694.599 99.6175L695.929 99.4404C696.277 99.4038 696.58 99.6599 696.614 100.026C696.659 100.392 696.423 100.721 696.086 100.77L695.384 100.863L696.383 101.401C696.529 101.486 696.597 101.694 696.518 101.852C696.485 101.962 696.383 102.023 696.282 102.035C696.226 102.035 696.17 102.035 696.114 102.011L694.259 101.013L692.486 101.249L693.824 101.965C693.97 102.051 694.037 102.246 693.958 102.417C693.925 102.526 693.824 102.587 693.723 102.6C693.667 102.6 693.61 102.6 693.554 102.563L691.385 101.395L690.314 101.538L691.123 101.974C691.281 102.059 691.337 102.266 691.269 102.425C691.224 102.535 691.123 102.596 691.033 102.608C690.966 102.608 690.91 102.608 690.854 102.584L689.189 101.688L685.715 102.15L687.958 104.054L690.428 104.269C690.607 104.294 690.72 104.452 690.708 104.635C690.697 104.794 690.585 104.916 690.439 104.94H690.383L688.836 104.799L689.964 105.756L692.6 105.986C692.78 106.011 692.892 106.169 692.881 106.352C692.87 106.511 692.757 106.645 692.611 106.657H692.555L690.84 106.501L691.992 107.478L694.586 107.715C694.755 107.727 694.878 107.886 694.856 108.069C694.845 108.227 694.744 108.361 694.598 108.374H694.53L692.867 108.221L693.946 109.137C694.216 109.357 694.272 109.783 694.059 110.064C693.946 110.222 693.812 110.308 693.643 110.32C693.486 110.344 693.329 110.296 693.194 110.186L692.204 109.346L692.743 111.079C692.799 111.25 692.721 111.445 692.563 111.506L692.496 111.518C692.35 111.53 692.215 111.445 692.17 111.286L691.339 108.611L690.244 107.681L690.764 109.357C690.82 109.54 690.742 109.723 690.573 109.784C690.551 109.796 690.54 109.796 690.517 109.796C690.371 109.808 690.237 109.723 690.192 109.564L689.36 106.931L688.237 105.978L688.604 107.145C688.66 107.328 688.582 107.511 688.413 107.572C688.391 107.584 688.368 107.584 688.357 107.584C688.211 107.596 688.076 107.511 688.031 107.352L687.362 105.236L684.975 103.209L685.323 106.282L686.821 108.189C686.922 108.335 686.911 108.542 686.788 108.664C686.743 108.701 686.675 108.738 686.619 108.738C686.518 108.75 686.417 108.713 686.35 108.628L685.459 107.482L685.647 109.136L687.151 111.05C687.252 111.184 687.24 111.403 687.117 111.525C687.072 111.562 687.016 111.586 686.949 111.598C686.847 111.611 686.746 111.574 686.69 111.477L685.781 110.319L685.969 111.979L687.487 113.911C687.588 114.057 687.565 114.265 687.442 114.387C687.397 114.423 687.341 114.448 687.285 114.46C687.184 114.472 687.071 114.435 687.015 114.338L686.105 113.179L686.226 114.25C686.26 114.616 686.024 114.958 685.687 114.994Z" fill="white"/>
<path opacity="0.2" fill-rule="evenodd" clip-rule="evenodd" d="M23.7442 108.99C23.1703 109.073 22.6346 108.616 22.5581 107.993L22.3045 105.739L21.0644 108.457C20.9878 108.644 20.8348 108.748 20.6626 108.768C20.5669 108.768 20.4522 108.768 20.3565 108.727C20.1078 108.581 20.0121 108.228 20.1461 107.937L22.0726 103.676L21.7556 100.858L20.5184 103.582C20.4419 103.769 20.2888 103.873 20.1166 103.893C20.0018 103.893 19.9062 103.893 19.8105 103.852C19.5618 103.706 19.447 103.353 19.581 103.062L21.5245 98.8028L21.206 95.9712L19.9574 98.7076C19.8809 98.8946 19.7278 98.9985 19.5557 99.0193C19.4409 99.04 19.3452 99.0193 19.2496 98.9777C19.0009 98.8323 18.8861 98.4998 19.02 98.209L20.9739 93.9076L20.4319 89.0885L17.0853 93.7327L16.7603 97.9181C16.7412 98.1882 16.569 98.4168 16.3203 98.4376H16.2055C15.9185 98.4168 15.7081 98.1259 15.7272 97.8143L15.9083 95.366L14.2788 97.6272L13.9534 101.818C13.9343 102.088 13.743 102.316 13.4943 102.337H13.3986C13.0925 102.316 12.9012 102.046 12.9203 101.735L13.1027 99.2594L11.5089 101.471L11.2448 104.873C11.2256 105.143 11.0534 105.372 10.8047 105.393H10.69C10.403 105.372 10.1926 105.102 10.2308 104.79L10.3576 103.069L9.39238 104.408C9.22021 104.657 8.97151 104.824 8.70368 104.844C8.43585 104.886 8.16802 104.803 7.93845 104.616C7.47931 104.221 7.40279 103.515 7.74714 103.016L9.39481 100.726L6.324 101.866L6.20921 101.887C5.96052 101.908 5.75008 101.763 5.65442 101.492C5.55877 101.201 5.71182 100.89 5.97965 100.786L10.5327 99.1029C10.5462 99.0972 10.5599 99.0924 10.5737 99.0883L12.2487 96.7608L8.99773 97.9675C8.9786 97.9675 8.96425 97.9727 8.9499 97.9779C8.93556 97.9831 8.92121 97.9883 8.90208 97.9883C8.65338 98.009 8.42381 97.8636 8.34729 97.5935C8.25164 97.3026 8.40468 96.991 8.65338 96.8871L13.2065 95.2041C13.2669 95.1807 13.3293 95.171 13.3908 95.1736L15.0741 92.8345L11.8237 94.0461C11.7854 94.0669 11.7471 94.0669 11.7089 94.0669C11.4602 94.1084 11.2497 93.9422 11.1541 93.6929C11.0584 93.3813 11.2115 93.0696 11.4793 92.9657L16.0324 91.3037C16.0859 91.2814 16.142 91.2715 16.1981 91.2727L18.7083 87.7845L12.797 88.5714L10.4244 90.7684C10.3288 90.8515 10.2331 90.8931 10.1375 90.8931C9.9653 90.9138 9.79313 90.8515 9.67834 90.7061C9.48704 90.4567 9.5253 90.1035 9.73574 89.8958L10.9077 88.8229L8.6416 89.1245L5.82414 91.7335C5.74762 91.7959 5.65196 91.8374 5.53718 91.8582C5.365 91.879 5.19283 91.8167 5.07804 91.6504C4.88674 91.4219 4.925 91.0479 5.13544 90.8609L6.74655 89.3768L3.67599 89.7855L1.55854 91.7463C1.48202 91.8294 1.36723 91.871 1.27158 91.871C1.0994 91.8917 0.927225 91.8294 0.812441 91.684C0.621134 91.4346 0.659395 91.0814 0.869833 90.8736L1.77664 90.0383L1.19079 90.1163C0.616868 90.1994 0.10034 89.7631 0.0238167 89.119C-0.0527064 88.5165 0.368168 87.9347 0.94209 87.8516L3.86285 87.4626L0.289668 85.5396C0.0218349 85.3941 -0.07382 85.0409 0.0600965 84.7708C0.174882 84.4799 0.500108 84.376 0.74881 84.5007L5.05327 86.807C5.21306 86.9004 5.30967 87.0797 5.32788 87.2675L7.34485 86.9989L4.56887 85.5049C4.30104 85.3595 4.20539 85.0271 4.3393 84.757C4.45409 84.4661 4.77931 84.3622 5.02801 84.4869L9.24437 86.7459L12.4463 86.3195L9.18454 84.5641C8.91671 84.4187 8.80192 84.0655 8.93584 83.7954C9.06975 83.5045 9.39497 83.4006 9.64367 83.5253L13.9481 85.8315C14.0484 85.8902 14.1238 85.9827 14.1706 86.0899L18.5233 85.5102L14.2713 81.901L10.369 81.5435C10.0629 81.5227 9.87162 81.2526 9.89075 80.9409C9.90989 80.6292 10.1586 80.3799 10.4455 80.4215L12.7659 80.6231L9.73193 78.0478L6.74426 77.7752C6.4573 77.7544 6.26599 77.4843 6.28512 77.1726C6.30425 76.8609 6.55296 76.6116 6.83992 76.6531L8.23203 76.7746L6.28988 75.126L3.28633 74.8509C2.98024 74.8509 2.78893 74.56 2.80806 74.2484C2.84632 73.9367 3.09502 73.6874 3.38199 73.7289L4.79662 73.8585L4.56646 73.6631C4.12645 73.2891 4.0308 72.5619 4.37515 72.0633C4.73864 71.5854 5.40821 71.5023 5.84822 71.8763L7.62948 73.3883L6.43978 69.6077C6.34413 69.296 6.49718 68.9844 6.765 68.8805C7.03283 68.7766 7.35805 68.9428 7.41544 69.2337L8.965 74.1579C9.00432 74.286 9.00485 74.4141 8.9719 74.5278L11.085 76.3214L9.90319 72.5351C9.80753 72.2234 9.96058 71.9117 10.2093 71.8079C10.4962 71.704 10.8023 71.8494 10.8789 72.1611L12.4093 77.0853C12.4484 77.2126 12.4492 77.3399 12.4181 77.4531L14.7489 79.4315L13.5091 75.4593C13.4134 75.1476 13.5665 74.836 13.8152 74.7321C14.1021 74.6282 14.4082 74.7736 14.4848 75.0853L16.0152 80.0094C16.0667 80.1773 16.0517 80.3452 15.9849 80.4806L19.831 83.7453L19.1954 78.0941L16.5155 74.6625C16.3433 74.4132 16.3625 74.06 16.5729 73.8522C16.8025 73.6444 17.1277 73.6652 17.2999 73.9145L18.9649 76.0446L18.6296 73.0637L15.9467 69.6493C15.7745 69.4207 15.8128 69.0675 16.0232 68.8598C16.2337 68.652 16.578 68.6728 16.7502 68.9221L18.4 71.0216L18.0828 68.2016L15.4828 64.8928C15.3106 64.6642 15.3489 64.311 15.5402 64.1032C15.7698 63.8955 16.1141 63.9162 16.2863 64.1656L17.8531 66.1596L17.6415 64.2776C17.565 63.6542 17.9667 63.0933 18.5598 63.0102C19.1337 62.927 19.6311 63.3634 19.7076 63.9867L19.9363 66.0053L21.1603 63.3108C21.2942 63.0407 21.6003 62.916 21.849 63.0614C22.1168 63.1861 22.2316 63.5393 22.0977 63.8302L20.1688 68.0577L20.4874 70.8699L21.7019 68.1719C21.8358 67.9018 22.1419 67.7771 22.4097 67.9226C22.6776 68.0472 22.7732 68.4005 22.6393 68.6913L20.7177 72.9029L21.0415 75.761L22.2629 73.0598C22.3968 72.7897 22.7029 72.665 22.9707 72.8105C23.2386 72.9351 23.3533 73.2883 23.2194 73.5584L21.2731 77.805L21.901 83.3478L25.0762 78.9355L25.4218 74.245C25.46 73.9541 25.7087 73.7048 26.0148 73.7256C26.2827 73.7671 26.4931 74.0372 26.474 74.3489L26.2438 77.3131L27.8867 75.0302L28.2318 70.3456C28.2509 70.0339 28.4996 69.8053 28.8057 69.8261C29.0735 69.8469 29.3031 70.117 29.284 70.4494L29.0542 73.4078L30.563 71.3112L30.9214 66.445C30.9406 66.1333 31.2084 65.9048 31.4954 65.9255C31.7823 65.9463 31.9928 66.2372 31.9736 66.5489L31.7308 69.6884L32.7319 68.2973C33.0762 67.7986 33.7458 67.7155 34.2049 68.1103C34.6449 68.4843 34.7406 69.2115 34.3962 69.7102L33.7138 70.6571L35.8863 69.8641C36.1541 69.7394 36.4411 69.9264 36.5367 70.2173C36.6324 70.5082 36.4793 70.8406 36.2115 70.9237L32.5396 72.2866L30.8254 74.6654L33.2958 73.7636C33.5637 73.639 33.8506 73.826 33.9463 74.1168C34.0419 74.4077 33.8889 74.7401 33.6019 74.8232L29.6503 76.2961L28.0544 78.5108L30.3761 77.6633C30.6439 77.5386 30.95 77.7256 31.0265 78.0165C31.1221 78.3073 30.9882 78.6398 30.7013 78.7229L26.8792 80.1416L23.4869 84.8491L28.004 84.2476C28.0346 84.1742 28.0792 84.1066 28.1367 84.0499L31.7907 80.684C32.0203 80.4762 32.3263 80.5177 32.5177 80.7463C32.709 80.9956 32.6898 81.3488 32.4603 81.5566L29.7984 84.0086L33.2603 83.5475L36.384 80.6701C36.5944 80.4624 36.9196 80.5039 37.111 80.7325C37.3023 80.9818 37.2831 81.335 37.0536 81.5428L35.1505 83.2958L37.038 83.0444L40.6629 79.7258C40.8925 79.4973 41.1986 79.5388 41.3899 79.7674C41.5812 80.0167 41.5621 80.3699 41.3325 80.5777L38.9279 82.7927L41.1932 82.4911C41.7863 82.4287 42.3028 82.8651 42.3602 83.4884C42.4367 84.1117 42.035 84.6727 41.461 84.7558L40.2647 84.915L41.9677 85.8315C42.2164 85.9769 42.3312 86.3301 42.1972 86.6002C42.1399 86.7872 41.9677 86.8911 41.7955 86.9118C41.6998 86.9118 41.6042 86.9118 41.5085 86.8703L38.3491 85.17L35.3279 85.5722L37.6067 86.7931C37.8554 86.9385 37.9702 87.271 37.8362 87.5618C37.7789 87.7488 37.6067 87.8527 37.4345 87.8735C37.3389 87.8735 37.2432 87.8735 37.1475 87.8112L33.4514 85.822L31.6269 86.0648L33.0059 86.8071C33.2738 86.9525 33.3694 87.3057 33.2546 87.5758C33.1781 87.7628 33.0059 87.8667 32.8529 87.8875C32.7381 87.8875 32.6425 87.8875 32.5468 87.8459L29.7112 86.3198L23.7922 87.1078L27.6134 90.3513L31.8209 90.7183C32.127 90.7599 32.3183 91.03 32.2992 91.3417C32.2801 91.6118 32.0888 91.8195 31.8401 91.8611H31.7444L29.1088 91.6206L31.0303 93.2517L35.5221 93.6435C35.8282 93.685 36.0195 93.9551 36.0004 94.2668C35.9812 94.5368 35.7899 94.7654 35.5412 94.7862H35.4456L32.5241 94.5196L34.4863 96.1853L38.906 96.5885C39.193 96.6093 39.4034 96.8794 39.3652 97.1911C39.346 97.4612 39.1738 97.6898 38.9251 97.7106H38.8104L35.9775 97.4511L37.8157 99.0114C38.2748 99.3854 38.3705 100.113 38.007 100.59C37.8157 100.861 37.5861 101.006 37.2992 101.027C37.0313 101.068 36.7635 100.985 36.5339 100.798L34.8476 99.3668L35.7654 102.32C35.8611 102.611 35.7272 102.943 35.4594 103.047L35.3446 103.068C35.0959 103.089 34.8663 102.943 34.7898 102.673L33.3732 98.1153L31.5073 96.5315L32.3944 99.3855C32.4901 99.6972 32.3561 100.009 32.0692 100.113C32.0309 100.134 32.0118 100.134 31.9735 100.134C31.7248 100.154 31.4952 100.009 31.4187 99.7388L30.0011 95.2529L28.0881 93.6291L28.7138 95.6173C28.8094 95.929 28.6755 96.2407 28.3885 96.3446C28.3503 96.3653 28.312 96.3653 28.2929 96.3653C28.0442 96.3861 27.8146 96.2407 27.7381 95.9706L26.5986 92.3648L22.5314 88.9124L23.1246 94.1479L25.6767 97.3958C25.8489 97.6451 25.8298 97.9983 25.6193 98.2061C25.5428 98.2684 25.428 98.3308 25.3324 98.3308C25.1602 98.3516 24.988 98.2892 24.8732 98.1438L23.356 96.1909L23.6753 99.0088L26.2377 102.27C26.4099 102.498 26.3908 102.872 26.1803 103.08C26.1038 103.142 26.0082 103.184 25.8934 103.205C25.7212 103.226 25.549 103.163 25.4534 102.997L23.9037 101.025L24.2241 103.853L26.8104 107.145C26.9826 107.394 26.9443 107.747 26.7339 107.955C26.6573 108.017 26.5617 108.059 26.466 108.08C26.2938 108.101 26.1025 108.038 26.0069 107.872L24.4557 105.898L24.6625 107.723C24.7199 108.346 24.3181 108.928 23.7442 108.99Z" fill="white"/>
<path opacity="0.3" fill-rule="evenodd" clip-rule="evenodd" d="M561.185 84.2128C560.359 84.3324 559.587 83.6743 559.477 82.7769L559.112 79.5313L557.327 83.4447C557.216 83.7139 556.996 83.8635 556.748 83.8934C556.61 83.8934 556.445 83.8934 556.307 83.8335C555.949 83.6241 555.812 83.1156 556.005 82.6968L558.778 76.5625L558.322 72.5047L556.541 76.4261C556.43 76.6953 556.21 76.8448 555.962 76.8748C555.797 76.8748 555.659 76.8748 555.522 76.8149C555.163 76.6055 554.998 76.097 555.191 75.6782L557.989 69.5458L557.531 65.469L555.733 69.4087C555.623 69.6779 555.402 69.8275 555.155 69.8574C554.989 69.8873 554.852 69.8574 554.714 69.7976C554.356 69.5882 554.191 69.1096 554.383 68.6908L557.196 62.4981L556.416 55.5599L551.598 62.2462L551.13 68.2721C551.102 68.661 550.855 68.99 550.497 69.02H550.331C549.918 68.99 549.615 68.5713 549.643 68.1226L549.903 64.5977L547.557 67.8532L547.089 73.8865C547.061 74.2754 546.786 74.6044 546.428 74.6343H546.29C545.849 74.6044 545.574 74.2156 545.602 73.7669L545.864 70.2031L543.57 73.3871L543.189 78.2854C543.162 78.6743 542.914 79.0034 542.556 79.0333H542.39C541.977 79.0034 541.674 78.6145 541.729 78.1658L541.912 75.6874L540.522 77.6158C540.274 77.9748 539.916 78.2141 539.531 78.244C539.145 78.3038 538.76 78.1842 538.429 77.915C537.768 77.3466 537.658 76.3296 538.154 75.6116L540.526 72.3153L536.105 73.9565L535.939 73.9864C535.581 74.0163 535.278 73.8069 535.141 73.418C535.003 72.9992 535.223 72.5505 535.609 72.4009L542.164 69.9778C542.184 69.9697 542.203 69.9627 542.223 69.9569L544.634 66.6059L539.954 68.3432C539.927 68.3432 539.906 68.3507 539.885 68.3582C539.865 68.3656 539.844 68.3731 539.816 68.3731C539.458 68.403 539.128 68.1936 539.018 67.8048C538.88 67.386 539.1 66.9373 539.458 66.7877L546.014 64.3647C546.101 64.331 546.19 64.317 546.279 64.3208L548.702 60.9532L544.023 62.6974C543.968 62.7274 543.913 62.7274 543.857 62.7274C543.499 62.7872 543.196 62.5479 543.059 62.189C542.921 61.7403 543.141 61.2916 543.527 61.1421L550.082 58.7492C550.159 58.7171 550.24 58.7029 550.321 58.7046L553.935 53.6825L545.424 54.8154L542.008 57.9785C541.87 58.0982 541.733 58.158 541.595 58.158C541.347 58.1879 541.099 58.0982 540.934 57.8888C540.659 57.5298 540.714 57.0213 541.017 56.7221L542.704 55.1775L539.442 55.6117L535.385 59.3681C535.275 59.4579 535.137 59.5177 534.972 59.5476C534.724 59.5775 534.476 59.4878 534.311 59.2485C534.036 58.9194 534.091 58.381 534.394 58.1118L536.713 55.9749L532.292 56.5634L529.244 59.3864C529.134 59.506 528.968 59.5658 528.831 59.5658C528.583 59.5958 528.335 59.506 528.17 59.2966C527.894 58.9377 527.949 58.4291 528.252 58.13L529.558 56.9274L528.714 57.0397C527.888 57.1593 527.144 56.5312 527.034 55.6038C526.924 54.7364 527.53 53.8988 528.356 53.7791L532.561 53.2191L527.417 50.4506C527.031 50.2412 526.894 49.7326 527.087 49.3438C527.252 48.925 527.72 48.7754 528.078 48.9549L534.275 52.2753C534.505 52.4098 534.644 52.6678 534.671 52.9382L537.575 52.5515L533.578 50.4006C533.192 50.1912 533.055 49.7126 533.247 49.3237C533.413 48.9049 533.881 48.7554 534.239 48.9349L540.309 52.1873L544.919 51.5734L540.223 49.0461C539.837 48.8367 539.672 48.3282 539.865 47.9394C540.058 47.5206 540.526 47.371 540.884 47.5505L547.081 50.8708C547.226 50.9553 547.334 51.0884 547.402 51.2427L553.668 50.4082L547.547 45.2119L541.928 44.6973C541.488 44.6673 541.212 44.2784 541.24 43.8297C541.267 43.381 541.625 43.022 542.039 43.0818L545.379 43.3721L541.011 39.6644L536.71 39.272C536.297 39.2421 536.021 38.8532 536.049 38.4044C536.076 37.9557 536.434 37.5967 536.848 37.6566L538.852 37.8314L536.056 35.458L531.731 35.0619C531.291 35.0619 531.015 34.6431 531.043 34.1944C531.098 33.7457 531.456 33.3867 531.869 33.4466L533.906 33.6331L533.574 33.3519C532.941 32.8134 532.803 31.7664 533.299 31.0485C533.822 30.3605 534.786 30.2409 535.42 30.7793L537.984 32.9561L536.271 27.5131C536.134 27.0644 536.354 26.6157 536.74 26.4662C537.125 26.3166 537.593 26.5559 537.676 26.9747L539.907 34.0641C539.964 34.2485 539.964 34.433 539.917 34.5966L542.959 37.179L541.258 31.7277C541.12 31.279 541.34 30.8303 541.698 30.6807C542.112 30.5311 542.552 30.7405 542.662 31.1892L544.866 38.2787C544.922 38.462 544.923 38.6453 544.879 38.8082L548.234 41.6566L546.449 35.9378C546.311 35.4891 546.532 35.0404 546.89 34.8909C547.303 34.7413 547.744 34.9507 547.854 35.3994L550.057 42.4888C550.132 42.7305 550.11 42.9722 550.014 43.1671L555.551 47.8673L554.636 39.7313L550.778 34.7907C550.53 34.4318 550.557 33.9232 550.86 33.6241C551.191 33.325 551.659 33.3549 551.907 33.7139L554.304 36.7806L553.821 32.4888L549.959 27.5731C549.711 27.2441 549.766 26.7356 550.069 26.4364C550.372 26.1373 550.868 26.1672 551.116 26.5262L553.491 29.5489L553.034 25.4887L549.291 20.725C549.043 20.3959 549.098 19.8874 549.373 19.5883C549.704 19.2892 550.2 19.3191 550.448 19.678L552.703 22.5488L552.399 19.8393C552.289 18.9419 552.867 18.1343 553.721 18.0146C554.547 17.895 555.263 18.5231 555.373 19.4205L555.703 22.3268L557.465 18.4474C557.658 18.0585 558.098 17.879 558.456 18.0884C558.842 18.2679 559.007 18.7764 558.814 19.1952L556.037 25.2816L556.496 29.3304L558.245 25.446C558.437 25.0571 558.878 24.8776 559.264 25.087C559.649 25.2665 559.787 25.775 559.594 26.1938L556.828 32.2573L557.294 36.3723L559.052 32.4832C559.245 32.0943 559.686 31.9149 560.071 32.1242C560.457 32.3037 560.622 32.8122 560.429 33.2011L557.627 39.315L558.531 47.295L563.103 40.9426L563.6 34.1896C563.655 33.7708 564.013 33.4118 564.454 33.4418C564.839 33.5016 565.142 33.8905 565.115 34.3392L564.783 38.6068L567.149 35.3199L567.646 28.5755C567.673 28.1268 568.031 27.7978 568.472 27.8277C568.858 27.8576 569.188 28.2465 569.161 28.7251L568.83 32.984L571.002 29.9657L571.518 22.9597C571.546 22.511 571.931 22.182 572.344 22.2119C572.757 22.2418 573.06 22.6606 573.033 23.1093L572.683 27.6292L574.125 25.6265C574.62 24.9086 575.584 24.7889 576.245 25.3573C576.879 25.8957 577.017 26.9427 576.521 27.6606L575.538 29.0241L578.666 27.8823C579.052 27.7028 579.465 27.9721 579.602 28.3908C579.74 28.8096 579.52 29.2882 579.134 29.4079L573.848 31.3701L571.38 34.7949L574.936 33.4965C575.322 33.3171 575.735 33.5863 575.873 34.005C576.011 34.4238 575.79 34.9024 575.377 35.022L569.688 37.1426L567.39 40.3312L570.733 39.1109C571.118 38.9314 571.559 39.2007 571.669 39.6194C571.807 40.0382 571.614 40.5168 571.201 40.6365L565.698 42.679L560.814 49.4565L567.318 48.5904C567.362 48.4848 567.426 48.3875 567.509 48.3058L572.769 43.4598C573.1 43.1607 573.541 43.2205 573.816 43.5496C574.092 43.9085 574.064 44.4171 573.733 44.7162L569.901 48.2463L574.885 47.5825L579.382 43.44C579.685 43.1408 580.154 43.2007 580.429 43.5297C580.705 43.8887 580.677 44.3972 580.346 44.6963L577.607 47.2201L580.324 46.8582L585.543 42.0803C585.874 41.7513 586.314 41.8111 586.59 42.1402C586.865 42.4991 586.838 43.0077 586.507 43.3068L583.045 46.4958L586.306 46.0615C587.16 45.9718 587.904 46.5999 587.987 47.4973C588.097 48.3947 587.518 49.2024 586.692 49.3221L584.97 49.5513L587.421 50.8708C587.78 51.0801 587.945 51.5886 587.752 51.9775C587.669 52.2467 587.421 52.3963 587.174 52.4262C587.036 52.4262 586.898 52.4262 586.76 52.3664L582.212 49.9184L577.862 50.4974L581.143 52.2552C581.501 52.4646 581.666 52.9432 581.473 53.3619C581.391 53.6311 581.143 53.7807 580.895 53.8106C580.757 53.8106 580.62 53.8106 580.482 53.7209L575.161 50.8571L572.534 51.2067L574.519 52.2754C574.905 52.4848 575.042 52.9933 574.877 53.3822C574.767 53.6514 574.519 53.801 574.299 53.8309C574.133 53.8309 573.996 53.8309 573.858 53.7711L569.776 51.5739L561.254 52.7082L566.755 57.378L572.813 57.9064C573.254 57.9663 573.529 58.3551 573.502 58.8039C573.474 59.1927 573.199 59.4919 572.841 59.5517H572.703L568.908 59.2055L571.675 61.5537L578.142 62.1178C578.582 62.1776 578.858 62.5665 578.83 63.0151C578.803 63.404 578.527 63.733 578.169 63.7629H578.031L573.825 63.3792L576.65 65.7772L583.014 66.3578C583.427 66.3877 583.73 66.7766 583.675 67.2253C583.647 67.6142 583.399 67.9433 583.041 67.9732H582.876L578.797 67.5996L581.444 69.8461C582.105 70.3845 582.243 71.4315 581.719 72.1195C581.444 72.5083 581.113 72.7177 580.7 72.7477C580.315 72.8075 579.929 72.6878 579.598 72.4186L577.171 70.3578L578.492 74.6093C578.63 75.0281 578.437 75.5067 578.051 75.6563L577.886 75.6862C577.528 75.7161 577.198 75.5067 577.087 75.1178L575.048 68.5559L572.362 66.2757L573.639 70.3848C573.776 70.8335 573.584 71.2822 573.17 71.4318C573.115 71.4617 573.088 71.4617 573.033 71.4617C572.675 71.4916 572.344 71.2822 572.234 70.8934L570.193 64.4349L567.439 62.0971L568.34 64.9596C568.477 65.4083 568.285 65.857 567.871 66.0066C567.816 66.0365 567.761 66.0365 567.734 66.0365C567.376 66.0664 567.045 65.857 566.935 65.4682L565.294 60.2768L559.439 55.3064L560.293 62.844L563.967 67.5201C564.215 67.879 564.187 68.3876 563.885 68.6867C563.774 68.7764 563.609 68.8662 563.471 68.8662C563.223 68.8961 562.976 68.8063 562.81 68.5969L560.626 65.7853L561.086 69.8424L564.775 74.5373C565.023 74.8664 564.995 75.4048 564.692 75.7039C564.582 75.7937 564.444 75.8535 564.279 75.8834C564.031 75.9133 563.783 75.8236 563.646 75.5843L561.414 72.7449L561.876 76.8173L565.599 81.5559C565.847 81.9149 565.792 82.4234 565.489 82.7225C565.379 82.8123 565.241 82.8721 565.103 82.902C564.856 82.9319 564.58 82.8422 564.442 82.6029L562.209 79.7609L562.507 82.3881C562.59 83.2855 562.011 84.123 561.185 84.2128Z" fill="white"/>
</svg>
