<svg width="58" height="38" viewBox="0 0 58 38" fill="none" xmlns="http://www.w3.org/2000/svg">
<path fill-rule="evenodd" clip-rule="evenodd" d="M3.67873 0.748535C2.1269 0.748535 0.868896 2.00655 0.868896 3.55837V34.4412C0.868896 35.993 2.12691 37.251 3.67874 37.251H54.2167C55.7685 37.251 57.0265 35.993 57.0265 34.4412V3.55837C57.0265 2.00654 55.7685 0.748535 54.2167 0.748535H3.67873ZM17.7682 9.17188C18.8712 9.17188 19.8872 9.29633 20.816 9.54524C21.7449 9.77638 22.5479 10.132 23.2252 10.612C23.9025 11.0743 24.425 11.6432 24.7926 12.3188C25.1797 12.9945 25.3732 13.759 25.3732 14.6124C25.3732 15.6258 25.141 16.5948 24.6765 17.5193C24.2315 18.4439 23.5735 19.3417 22.7027 20.2129C21.8513 21.0841 20.8063 21.9375 19.5679 22.7731C18.3294 23.591 16.9361 24.4089 15.3881 25.2267H25.4602V28.827H9.2925V25.2267C10.7051 24.2844 12.0887 23.3688 13.4433 22.4798C14.7979 21.573 15.9976 20.693 17.0426 19.8395C18.1069 18.9683 18.9583 18.1238 19.5969 17.306C20.2355 16.4881 20.5548 15.6791 20.5548 14.8791C20.5548 14.0434 20.2645 13.4301 19.684 13.0389C19.1034 12.63 18.4165 12.4255 17.6231 12.4255C17.1974 12.4255 16.7717 12.4966 16.3459 12.6389C15.9396 12.7633 15.5719 12.9767 15.2429 13.2789C14.9333 13.5812 14.6817 13.999 14.4882 14.5324C14.2947 15.048 14.2173 15.688 14.256 16.4526H9.52471C9.48601 15.3147 9.66016 14.2924 10.0472 13.3856C10.4536 12.4789 11.0244 11.7143 11.7597 11.0921C12.4951 10.4698 13.3756 9.99862 14.4012 9.67859C15.4268 9.34078 16.5491 9.17188 17.7682 9.17188ZM32.611 28.827V15.8392H27.8216V12.6122C28.6924 12.5944 29.4471 12.5233 30.0857 12.3988C30.7436 12.2566 31.3048 12.061 31.7692 11.8121C32.2336 11.5632 32.6206 11.2521 32.9303 10.8787C33.2399 10.4876 33.5108 10.0253 33.743 9.49191H37.3713V28.827H32.611ZM50.0068 19.9484V18.0291H46.9057V14.7876H44.6843V18.0291H41.5832V19.9484H44.6843V23.2112H46.9057V19.9484H50.0068Z" fill="#EDEDED"/>
</svg>
