<svg width="79" height="39" viewBox="0 0 79 39" fill="none" xmlns="http://www.w3.org/2000/svg">
<path d="M4.99044 1.25399C2.32887 2.14118 0.554493 7.53825 0 10.1259C0 11.7893 1.7522 14.6283 3.88145 16.2252C6.09943 17.8887 11.0476 19.4384 20.5163 17.3342C25.5067 16.2252 27.6558 15.0473 33.2696 20.6612C35.4876 22.8791 38.8145 30.0875 46.5774 26.7606C54.1541 23.5135 52.6769 24.5426 56.0038 27.8696C58.4836 30.3493 56.5583 30.642 62.1032 35.078C67.6482 39.5139 72.0841 39.5139 74.8566 33.969C77.3855 28.9112 78.1836 20.6612 78.1836 15.6707C78.1836 6.79883 72.6386 2.91734 68.2027 1.80832C62.4089 0.359817 64.3212 2.36298 59.8853 1.25399C55.4493 0.145007 57.1128 1.25396 52.6769 0.699333C48.2409 0.144711 48.2409 2.17808 45.4685 1.25399C40.478 -0.409357 41.587 1.25399 38.26 1.25399C34.9331 1.25399 32.9445 -0.507323 27.7247 0.144907C23.2887 0.69919 22.7342 1.80851 17.7438 1.80847C14.2369 1.80845 11.6444 -0.963979 4.99044 1.25399Z" fill="#E1EDFA"/>
<path d="M4.99044 1.25397C2.32887 2.14116 0.554493 7.53823 0 10.1259C0 11.7893 3.88145 12.8982 6.09943 12.8982C12.7533 12.8982 12.7533 10.1259 21.6252 12.8982C26.5047 14.423 25.3196 11.9736 32.7151 13.4527C38.26 14.5617 38.2465 19.277 46.5774 17.8886C49.9044 17.3342 53.2314 16.2252 57.1128 18.4431C60.1577 20.183 60.9943 21.7701 63.7667 23.4336C66.8315 25.2724 67.6482 26.7605 72.6386 24.5426C75.1721 23.4166 77.0848 27.5684 77.5876 23.9881C78.0151 20.9447 78.1836 17.9636 78.1836 15.6707C78.1836 6.79881 72.6386 2.91732 68.2027 1.8083C62.4089 0.359795 64.3212 2.36296 59.8853 1.25397C55.4493 0.144986 57.1128 1.25393 52.6769 0.699311C48.2409 0.144689 48.2409 2.17806 45.4685 1.25397C40.478 -0.409378 41.587 1.25397 38.26 1.25397C34.9331 1.25397 32.9445 -0.507345 27.7247 0.144885C23.2887 0.699168 22.7342 1.80848 17.7438 1.80845C14.2369 1.80843 11.6444 -0.964001 4.99044 1.25397Z" fill="white"/>
</svg>
